<?xml version="1.0" standalone="no"?>
<!DOCTYPE svg PUBLIC "-//W3C//DTD SVG 20010904//EN"
 "http://www.w3.org/TR/2001/REC-SVG-20010904/DTD/svg10.dtd">
<svg version="1.0" xmlns="http://www.w3.org/2000/svg"
 width="500.000000pt" height="500.000000pt" viewBox="0 0 500.000000 500.000000"
 preserveAspectRatio="xMidYMid meet">
<metadata>
Created by potrace 1.14, written by Peter Selinger 2001-2017
</metadata>
<g transform="translate(0.000000,500.000000) scale(0.100000,-0.100000)"
fill="#000000" stroke="none">
<path d="M2373 4285 c-62 -17 -109 -40 -273 -132 -69 -38 -174 -96 -234 -129
-61 -32 -126 -68 -145 -79 -20 -11 -85 -47 -146 -79 -60 -33 -123 -68 -139
-79 -19 -14 -27 -16 -22 -6 6 11 5 11 -6 -1 -7 -8 -25 -21 -40 -27 -16 -7 -28
-17 -28 -23 0 -5 -5 -10 -11 -10 -5 0 -7 6 -4 13 4 6 1 5 -7 -3 -21 -25 -97
-62 -110 -54 -7 4 -8 3 -4 -4 3 -6 -3 -16 -14 -22 -11 -6 -20 -7 -20 -3 0 4
-7 -1 -15 -11 -11 -14 -15 -16 -15 -5 -1 10 -3 9 -11 -4 -6 -9 -14 -15 -20
-12 -5 4 -9 2 -9 -4 0 -6 -16 -18 -36 -27 -20 -9 -38 -23 -41 -31 -3 -7 -9
-10 -14 -7 -5 3 -9 0 -9 -6 0 -6 -4 -9 -9 -5 -5 3 -12 -4 -16 -15 -3 -11 -10
-20 -15 -20 -4 0 -11 -11 -14 -25 -4 -14 -10 -23 -15 -21 -8 5 -25 -30 -22
-46 1 -5 -4 -8 -10 -8 -5 0 -7 -4 -4 -10 3 -5 2 -10 -4 -10 -6 0 -8 -7 -5 -15
4 -8 2 -15 -4 -15 -6 0 -9 -11 -7 -25 1 -14 -3 -25 -9 -25 -6 0 -4 -5 4 -10 8
-5 10 -10 4 -10 -9 0 -12 -17 -14 -90 0 -8 1 -26 3 -40 2 -14 -1 -30 -5 -37
-5 -6 -5 -14 -1 -16 10 -6 9 -95 -1 -104 -3 -3 -1 -12 5 -20 9 -10 8 -17 -1
-28 -8 -9 -8 -15 -2 -15 11 0 10 -38 -1 -57 -4 -6 -2 -15 4 -19 8 -4 7 -9 -2
-15 -9 -6 -10 -9 -2 -9 11 0 12 -24 1 -36 -4 -3 -5 -11 -2 -18 9 -22 10 -86 3
-98 -4 -7 -3 -18 3 -25 7 -9 7 -17 -2 -28 -8 -9 -8 -15 -2 -15 11 0 10 -38 -1
-57 -4 -6 -2 -15 4 -19 8 -4 7 -9 -2 -15 -9 -6 -10 -9 -2 -9 11 0 12 -24 1
-36 -4 -3 -3 -16 2 -28 4 -13 4 -29 -1 -39 -7 -11 -6 -17 0 -17 12 0 10 -27
-2 -47 -5 -7 -4 -13 0 -13 5 0 9 -9 10 -20 1 -11 -2 -18 -8 -15 -5 4 -6 -3 -1
-17 9 -26 8 -75 -1 -85 -4 -3 -2 -12 4 -20 9 -10 8 -17 -1 -28 -8 -9 -8 -15
-2 -15 11 0 10 -38 -1 -57 -4 -6 -2 -15 4 -19 8 -4 7 -9 -2 -15 -9 -6 -10 -9
-2 -9 12 0 12 -17 1 -35 -4 -6 -3 -17 2 -25 5 -9 5 -19 -2 -27 -6 -7 -6 -13
-1 -13 5 0 9 -9 10 -20 1 -13 -2 -18 -10 -13 -9 5 -9 3 0 -8 10 -12 10 -18 1
-27 -7 -7 -8 -12 -2 -12 5 0 10 -9 11 -20 1 -13 -2 -18 -10 -13 -9 5 -8 2 0
-9 7 -8 10 -18 6 -21 -3 -4 0 -13 7 -22 7 -8 8 -15 3 -15 -6 0 -8 -11 -5 -25
2 -14 8 -23 12 -20 5 3 7 -3 6 -12 -3 -22 22 -85 38 -95 6 -4 7 -8 2 -8 -15 0
65 -100 81 -100 4 -1 19 -14 33 -30 13 -17 32 -30 42 -30 10 0 18 -4 18 -9 0
-5 8 -11 18 -15 9 -3 35 -17 57 -30 22 -14 48 -25 58 -26 9 0 17 -4 17 -10 0
-5 7 -10 15 -10 8 0 15 -5 15 -12 0 -6 3 -8 7 -5 3 4 12 -1 20 -11 10 -11 12
-12 8 -2 -4 10 -2 9 8 -2 8 -10 17 -15 20 -11 4 3 7 1 7 -5 0 -7 10 -12 22
-12 12 0 19 -3 15 -6 -3 -4 17 -18 46 -32 29 -14 55 -30 59 -36 4 -6 8 -7 8
-3 0 5 7 1 16 -7 8 -9 21 -16 29 -16 7 0 15 -5 17 -10 2 -6 13 -12 26 -13 12
0 22 -4 22 -8 0 -4 9 -11 20 -14 11 -3 27 -13 35 -21 8 -8 24 -16 34 -17 11 0
18 -4 16 -7 -2 -4 18 -17 45 -29 28 -13 50 -28 50 -33 0 -6 3 -8 7 -5 3 4 12
-1 20 -11 8 -9 11 -10 7 -2 -5 8 4 5 20 -8 16 -12 37 -22 48 -22 11 0 17 -4
14 -8 -3 -5 11 -14 30 -21 18 -7 34 -17 34 -22 0 -6 4 -8 9 -4 5 3 16 -2 24
-10 9 -8 23 -15 32 -15 10 0 13 -5 9 -12 -5 -7 -2 -9 9 -5 9 3 18 0 21 -9 3
-8 15 -14 26 -14 11 0 20 -5 20 -11 0 -5 5 -7 10 -4 6 3 13 -1 16 -9 3 -9 10
-13 15 -10 5 3 9 1 9 -4 0 -10 60 -38 73 -34 4 1 7 -5 7 -14 0 -8 4 -12 10 -9
6 3 10 2 10 -4 0 -6 7 -7 17 -4 12 5 14 3 8 -7 -6 -10 -3 -12 13 -8 12 4 22 2
22 -3 0 -4 7 -6 15 -3 8 4 15 2 15 -4 0 -5 11 -8 25 -7 14 2 25 -2 25 -8 0 -7
5 -5 10 3 9 13 10 13 10 0 0 -11 2 -12 8 -3 5 7 13 9 21 4 8 -5 26 -5 42 -1
15 5 30 6 33 3 3 -3 13 0 23 8 15 12 16 12 8 -1 -8 -13 -7 -13 8 -1 9 7 17 10
17 6 0 -4 7 -2 15 5 8 7 15 9 15 6 0 -4 10 -1 23 6 12 7 25 11 30 10 4 -1 7 3
7 9 0 5 4 8 8 5 5 -3 18 3 29 14 12 10 24 16 27 13 3 -4 6 -1 6 5 0 7 6 12 14
12 8 0 22 7 30 16 9 8 16 12 16 7 0 -4 4 -2 8 5 5 7 19 15 32 17 13 3 28 11
32 20 5 8 15 15 22 15 7 0 21 8 32 18 19 17 37 24 61 25 7 0 10 4 8 8 -5 7 11
16 29 17 5 0 12 4 15 9 3 4 15 13 26 19 11 6 41 23 68 37 26 15 47 23 47 20 0
-4 7 3 16 15 8 12 20 20 25 17 5 -4 9 -1 9 5 0 6 5 8 10 5 6 -3 10 -1 10 6 0
6 8 9 20 6 11 -3 18 0 17 7 -1 6 6 10 16 10 10 -1 16 1 13 4 -8 8 32 34 43 28
5 -3 12 1 15 10 3 9 12 14 19 11 8 -3 19 4 26 14 6 11 16 17 21 14 6 -3 10 -2
10 3 0 6 11 13 25 16 14 4 25 11 25 17 0 6 5 7 10 4 6 -3 10 -1 10 4 0 6 9 11
20 11 11 0 23 7 26 15 4 8 10 12 15 9 5 -3 9 0 9 6 0 6 4 9 9 6 5 -4 11 -3 13
1 6 14 67 53 83 53 8 0 15 5 15 11 0 5 5 7 10 4 6 -3 10 0 10 7 0 9 3 9 10 -2
8 -13 10 -12 10 3 0 10 5 15 10 12 6 -3 10 -2 10 3 0 6 11 13 25 16 14 4 25
11 25 17 0 6 5 7 10 4 6 -3 10 -1 10 4 0 6 7 11 15 11 8 0 15 5 15 10 0 6 6 9
13 8 6 -2 11 2 10 9 -2 7 4 10 13 6 8 -3 14 -2 12 3 -2 5 1 10 6 11 5 0 13 8
18 17 5 9 16 16 25 16 9 0 13 6 9 15 -3 9 0 15 10 15 8 0 13 4 10 8 -3 5 4 16
15 26 12 10 18 24 15 32 -3 8 -2 13 3 10 4 -3 15 12 23 33 12 30 13 42 4 52
-8 9 -8 10 2 5 12 -7 17 9 14 47 -1 9 2 17 6 17 10 0 9 30 -2 48 -4 7 -2 12 6
12 9 0 9 3 -2 10 -8 5 -10 10 -4 10 7 0 10 14 7 36 -3 27 -1 34 9 28 10 -6 10
-5 2 7 -7 8 -13 33 -16 56 -3 35 -1 40 11 30 12 -10 13 -9 6 2 -14 24 -16 113
-2 129 10 13 9 15 -6 9 -15 -5 -16 -4 -7 13 13 25 13 33 -2 24 -7 -5 -8 -3 -2
7 5 8 7 22 5 33 -2 12 1 16 10 11 9 -6 9 -4 3 6 -12 19 -14 91 -3 106 6 7 6
13 0 17 -5 4 -9 47 -7 100 1 52 -1 93 -4 91 -4 -2 -7 2 -7 10 0 8 5 12 10 8 5
-3 6 4 2 17 -5 17 -4 21 6 15 9 -5 9 -2 -1 9 -19 19 -15 89 4 80 6 -3 2 2 -8
10 -11 9 -15 16 -10 16 5 0 9 28 8 65 -2 47 1 63 9 58 7 -3 4 3 -6 14 -13 14
-15 23 -7 28 8 5 7 11 -2 23 -7 9 -8 13 -3 10 12 -7 12 113 0 133 -5 7 -4 10
3 5 8 -4 9 5 6 31 -5 42 -5 38 -1 108 1 28 -2 53 -8 57 -6 5 -5 8 3 8 8 0 10
5 6 12 -4 7 -8 24 -9 38 -1 14 -6 35 -13 46 -6 12 -8 24 -5 28 3 3 1 6 -5 6
-7 0 -12 8 -12 18 -1 23 -25 54 -35 44 -5 -4 -5 1 -2 11 4 9 2 17 -4 17 -6 0
-8 4 -4 9 3 5 -4 12 -15 16 -11 4 -18 11 -15 16 4 5 0 9 -7 9 -7 0 -19 9 -26
20 -7 11 -19 20 -27 20 -8 0 -15 5 -15 10 0 6 -7 10 -15 10 -8 0 -15 5 -15 10
0 6 -9 10 -21 10 -11 0 -17 5 -14 10 5 9 -15 15 -37 11 -5 0 -8 4 -8 9 0 6 -6
10 -14 10 -7 0 -25 9 -39 20 -14 11 -32 20 -41 20 -9 0 -16 5 -16 10 0 6 -8
10 -18 10 -10 0 -24 9 -31 19 -8 11 -20 17 -28 14 -7 -3 -13 0 -13 7 0 6 -4 8
-10 5 -5 -3 -10 -1 -10 5 0 6 -4 9 -9 6 -5 -4 -11 -2 -13 3 -1 5 -10 11 -18
13 -8 2 -17 6 -20 9 -3 3 -63 37 -135 74 -71 37 -142 76 -156 86 -15 10 -37
23 -50 29 -13 5 -31 14 -39 20 -8 5 -76 42 -150 81 -74 40 -175 95 -225 124
-49 28 -112 59 -140 69 -69 24 -197 30 -262 11z"/>
</g>
</svg>
