<?xml version="1.0" standalone="no"?>
<!DOCTYPE svg PUBLIC "-//W3C//DTD SVG 20010904//EN"
 "http://www.w3.org/TR/2001/REC-SVG-20010904/DTD/svg10.dtd">
<svg version="1.0" xmlns="http://www.w3.org/2000/svg"
 width="1024.000000pt" height="1024.000000pt" viewBox="0 0 1024.000000 1024.000000"
 preserveAspectRatio="xMidYMid meet">
<metadata>
Created by potrace 1.14, written by Peter Selinger 2001-2017
</metadata>
<g transform="translate(0.000000,1024.000000) scale(0.100000,-0.100000)"
fill="#000000" stroke="none">
<path d="M0 9241 c0 -790 3 -1000 13 -1004 10 -4 10 -6 0 -6 -17 -1 -17 -38 0
-44 9 -4 9 -6 0 -6 -10 -1 -13 -26 -13 -91 l0 -90 40 0 40 0 0 60 c0 48 3 60
16 60 9 0 18 -9 21 -20 5 -17 14 -20 63 -20 38 0 60 -4 63 -12 11 -31 14 2 4
45 -9 34 -16 47 -29 47 -28 0 -26 76 2 83 16 4 20 0 20 -18 0 -15 7 -25 21
-28 18 -5 20 -11 14 -36 -4 -20 -3 -31 4 -31 6 0 11 7 11 15 0 8 9 15 20 15
17 0 20 7 20 40 0 39 1 40 34 40 l33 0 7 70 c4 39 4 79 1 90 -6 20 9 28 20 10
7 -12 55 -14 55 -2 0 4 -9 13 -20 20 -11 7 -20 21 -20 32 0 12 -7 20 -17 20
-12 0 -6 11 22 40 32 32 46 40 76 40 l37 0 7 80 7 80 34 0 c33 0 34 1 34 40
l0 40 40 0 40 0 0 75 0 75 83 1 c45 1 72 4 60 6 -19 4 -23 11 -23 44 0 35 3
39 25 39 23 0 25 4 25 40 l0 40 45 0 45 0 0 40 c0 33 3 40 20 40 17 0 20 -7
20 -40 0 -22 5 -40 10 -40 6 0 10 18 10 40 0 33 3 40 20 40 17 0 20 7 20 40 0
33 3 40 19 40 15 0 21 -9 24 -37 2 -21 3 -14 1 15 -2 48 0 56 27 81 22 21 29
37 29 65 0 20 5 36 10 36 6 0 10 -9 10 -20 0 -11 4 -20 8 -20 20 0 32 28 32
72 0 41 3 48 20 48 18 0 20 7 20 80 0 47 4 80 10 80 6 0 10 -18 10 -40 0 -33
3 -40 20 -40 17 0 20 7 20 40 0 22 5 40 10 40 6 0 11 -35 12 -82 1 -51 3 -65
5 -38 3 34 12 53 36 78 34 35 60 40 83 17 19 -19 34 -19 34 -1 0 9 -15 17 -40
21 -30 5 -40 11 -40 26 0 16 7 19 40 19 30 0 40 4 40 16 0 9 9 18 20 21 16 4
20 14 20 45 l0 40 98 -4 c53 -3 80 -3 60 -1 -36 4 -38 6 -38 38 0 33 1 34 43
37 l42 3 -2 63 -1 62 39 0 c32 0 39 -3 39 -20 0 -17 7 -20 40 -20 22 0 40 5
40 10 0 6 18 10 40 10 22 0 40 5 40 10 0 6 -18 10 -40 10 -70 0 -43 18 38 25
43 4 84 10 91 15 7 4 -10 5 -38 2 -47 -4 -51 -3 -51 17 0 18 6 21 40 21 28 0
40 4 40 14 0 21 27 27 96 20 42 -5 64 -3 64 4 0 6 -15 8 -40 5 -32 -5 -40 -2
-40 10 0 8 6 18 13 21 10 5 10 7 0 12 -7 3 -13 12 -13 20 0 12 -155 14 -1080
14 l-1080 0 0 -999z m1600 699 c0 -14 -7 -20 -22 -20 -20 0 -21 1 -3 20 10 11
20 20 22 20 1 0 3 -9 3 -20z m-445 -430 c-3 -5 -13 -10 -21 -10 -8 0 -14 5
-14 10 0 6 9 10 21 10 11 0 17 -4 14 -10z m45 -30 c0 -11 -6 -20 -14 -20 -18
0 -29 16 -21 30 11 18 35 11 35 -10z m-45 -30 c3 -5 1 -10 -4 -10 -6 0 -11
-18 -11 -40 0 -22 -4 -40 -10 -40 -5 0 -10 23 -10 50 0 37 4 50 14 50 8 0 18
-4 21 -10z m-260 -178 c-3 -3 -11 0 -18 7 -9 10 -8 11 6 5 10 -3 15 -9 12 -12z
m-95 -142 c0 -5 -8 -10 -17 -10 -15 0 -16 2 -3 10 19 12 20 12 20 0z m-160
-130 c0 -5 -4 -10 -10 -10 -5 0 -10 5 -10 10 0 6 5 10 10 10 6 0 10 -4 10 -10z
m-74 -46 c-9 -8 -21 -12 -28 -8 -8 5 -6 10 8 15 31 12 37 10 20 -7z m74 -14
c0 -13 -7 -20 -20 -20 -13 0 -20 -7 -20 -20 0 -16 -7 -20 -37 -20 l-37 0 22
20 c12 11 28 20 37 20 8 0 15 9 15 20 0 13 7 20 20 20 13 0 20 -7 20 -20z
m-160 -360 c0 -14 -7 -20 -22 -20 -20 0 -21 1 -3 20 10 11 20 20 22 20 1 0 3
-9 3 -20z m-80 -221 c0 -24 -4 -38 -10 -34 -5 3 -10 22 -10 41 0 19 5 34 10
34 6 0 10 -18 10 -41z m-40 -31 c0 -4 -9 -8 -20 -8 -15 0 -20 7 -20 27 0 25 0
26 20 8 11 -10 20 -22 20 -27z m-150 -48 c0 -5 -4 -10 -10 -10 -5 0 -10 5 -10
10 0 6 5 10 10 10 6 0 10 -4 10 -10z m110 -61 c0 -14 -5 -19 -17 -17 -26 5
-29 38 -4 38 15 0 21 -6 21 -21z m-160 -80 c0 -14 -5 -19 -17 -17 -26 5 -29
38 -4 38 15 0 21 -6 21 -21z"/>
<path d="M8190 10225 c0 -8 5 -15 10 -15 6 0 10 7 10 15 0 8 -4 15 -10 15 -5
0 -10 -7 -10 -15z"/>
<path d="M8240 10220 c0 -17 7 -20 40 -20 33 0 40 -3 40 -20 0 -17 7 -20 40
-20 33 0 40 -3 40 -20 0 -17 7 -20 40 -20 33 0 40 -3 40 -20 0 -18 7 -20 80
-20 47 0 80 -4 80 -10 0 -5 -18 -10 -40 -10 -33 0 -40 -3 -40 -20 0 -17 7 -20
40 -20 22 0 40 -4 40 -10 0 -5 9 -10 20 -10 17 0 20 -7 20 -40 0 -33 3 -40 19
-40 11 0 21 5 23 12 3 9 6 9 12 0 4 -7 2 -12 -3 -12 -6 0 -11 -9 -11 -20 0
-17 7 -20 40 -20 33 0 40 -3 40 -20 0 -18 7 -20 60 -20 l60 0 0 -40 c0 -34 3
-40 21 -40 20 0 21 -4 16 -82 -3 -46 -3 -73 -1 -60 7 27 34 29 41 2 3 -12 14
-20 25 -20 17 0 20 -6 17 -43 l-4 -42 38 4 c35 3 44 -2 83 -40 37 -36 44 -49
44 -81 0 -38 0 -38 40 -38 l40 0 0 -40 0 -40 40 0 40 0 0 40 c0 33 3 40 20 40
17 0 20 -7 20 -40 0 -33 3 -40 20 -40 17 0 20 -7 20 -40 0 -40 0 -40 39 -40
22 0 41 5 43 12 3 9 6 9 12 0 4 -7 2 -12 -3 -12 -6 0 -11 -18 -11 -40 l0 -40
40 0 40 0 0 -40 0 -40 40 0 c33 0 40 -3 40 -20 0 -13 7 -20 18 -20 19 0 42
-18 42 -32 0 -4 -21 -9 -47 -9 -27 -1 -40 -3 -30 -6 9 -2 17 -9 17 -15 0 -6
-8 -17 -17 -24 -17 -13 -17 -13 0 -14 9 0 17 -4 17 -10 0 -5 18 -10 40 -10 40
0 40 0 40 -39 0 -29 -5 -41 -17 -44 -10 -3 8 -5 40 -6 l57 -1 0 -75 0 -75 74
0 74 0 7 -80 7 -80 33 0 c33 0 34 -2 37 -42 l3 -43 45 -1 45 -1 -42 4 -43 4 0
60 c0 38 4 58 10 54 6 -3 10 -13 10 -21 0 -23 37 -16 44 9 6 20 7 20 16 5 6
-10 18 -22 28 -28 15 -9 15 -10 -5 -16 -13 -3 -23 -14 -23 -23 0 -16 41 -41
67 -41 20 0 15 17 -7 23 -11 3 -20 10 -20 17 0 7 9 14 20 17 15 4 20 14 20 42
0 20 -5 42 -12 49 -9 9 -9 12 0 12 9 0 12 193 12 840 l0 840 -1000 0 c-993 0
-1000 0 -1000 -20z m560 -230 c0 -5 -2 -10 -4 -10 -3 0 -8 5 -11 10 -3 6 -1
10 4 10 6 0 11 -4 11 -10z m265 -160 c-3 -5 -10 -10 -16 -10 -5 0 -9 5 -9 10
0 6 7 10 16 10 8 0 12 -4 9 -10z m0 -60 c3 -5 -1 -10 -9 -10 -9 0 -16 5 -16
10 0 6 4 10 9 10 6 0 13 -4 16 -10z m-25 -111 c0 -25 -33 -22 -38 4 -2 12 3
17 17 17 15 0 21 -6 21 -21z m290 -99 c0 -5 -4 -10 -10 -10 -5 0 -10 5 -10 10
0 6 5 10 10 10 6 0 10 -4 10 -10z m270 -290 c0 -5 -2 -10 -4 -10 -3 0 -8 5
-11 10 -3 6 -1 10 4 10 6 0 11 -4 11 -10z m160 -246 c0 -8 -4 -12 -10 -9 -5 3
-10 10 -10 16 0 5 5 9 10 9 6 0 10 -7 10 -16z m198 -51 c2 -8 -5 -13 -17 -13
-12 0 -21 6 -21 16 0 18 31 15 38 -3z m-78 -133 c0 -33 -3 -40 -20 -40 -17 0
-20 7 -20 40 0 33 3 40 20 40 17 0 20 -7 20 -40z m200 -255 c0 -9 12 -18 30
-22 21 -4 30 -11 28 -21 -5 -24 -29 -26 -35 -3 -4 18 -13 21 -54 21 -42 0 -49
3 -49 20 0 17 7 20 40 20 29 0 40 -4 40 -15z"/>
<path d="M8161 10174 c0 -11 3 -14 6 -6 3 7 2 16 -1 19 -3 4 -6 -2 -5 -13z"/>
<path d="M8231 10174 c0 -11 3 -14 6 -6 3 7 2 16 -1 19 -3 4 -6 -2 -5 -13z"/>
<path d="M2140 10120 c0 -5 5 -10 10 -10 6 0 10 5 10 10 0 6 -4 10 -10 10 -5
0 -10 -4 -10 -10z"/>
<path d="M8240 10069 c0 -5 5 -7 10 -4 6 3 10 8 10 11 0 2 -4 4 -10 4 -5 0
-10 -5 -10 -11z"/>
<path d="M8553 9960 c0 -25 2 -35 4 -22 2 12 2 32 0 45 -2 12 -4 2 -4 -23z"/>
<path d="M2030 9910 c0 -5 5 -10 10 -10 6 0 10 5 10 10 0 6 -4 10 -10 10 -5 0
-10 -4 -10 -10z"/>
<path d="M8720 9830 c0 -5 5 -10 10 -10 6 0 10 5 10 10 0 6 -4 10 -10 10 -5 0
-10 -4 -10 -10z"/>
<path d="M1600 9800 c0 -5 5 -10 10 -10 6 0 10 5 10 10 0 6 -4 10 -10 10 -5 0
-10 -4 -10 -10z"/>
<path d="M8780 9770 c0 -5 5 -10 10 -10 6 0 10 5 10 10 0 6 -4 10 -10 10 -5 0
-10 -4 -10 -10z"/>
<path d="M1660 9766 c0 -2 7 -7 16 -10 8 -3 12 -2 9 4 -6 10 -25 14 -25 6z"/>
<path d="M1595 9750 c4 -6 11 -8 16 -5 14 9 11 15 -7 15 -8 0 -12 -5 -9 -10z"/>
<path d="M8873 9720 c0 -25 2 -35 4 -22 2 12 2 32 0 45 -2 12 -4 2 -4 -23z"/>
<path d="M1550 9720 c0 -5 5 -10 10 -10 6 0 10 5 10 10 0 6 -4 10 -10 10 -5 0
-10 -4 -10 -10z"/>
<path d="M1440 9630 c0 -5 5 -10 11 -10 5 0 7 5 4 10 -3 6 -8 10 -11 10 -2 0
-4 -4 -4 -10z"/>
<path d="M9600 8930 c0 -5 4 -10 9 -10 6 0 13 5 16 10 3 6 -1 10 -9 10 -9 0
-16 -4 -16 -10z"/>
<path d="M9608 8883 c7 -3 16 -2 19 1 4 3 -2 6 -13 5 -11 0 -14 -3 -6 -6z"/>
<path d="M9680 8780 c0 -5 5 -10 10 -10 6 0 10 5 10 10 0 6 -4 10 -10 10 -5 0
-10 -4 -10 -10z"/>
<path d="M705 8710 c3 -5 8 -10 11 -10 2 0 4 5 4 10 0 6 -5 10 -11 10 -5 0 -7
-4 -4 -10z"/>
<path d="M10098 8323 c12 -2 32 -2 45 0 12 2 2 4 -23 4 -25 0 -35 -2 -22 -4z"/>
<path d="M311 8094 c0 -11 3 -14 6 -6 3 7 2 16 -1 19 -3 4 -6 -2 -5 -13z"/>
<path d="M300 8010 c0 -5 5 -10 10 -10 6 0 10 5 10 10 0 6 -4 10 -10 10 -5 0
-10 -4 -10 -10z"/>
<path d="M100 7990 c0 -5 9 -10 20 -10 11 0 20 5 20 10 0 6 -9 10 -20 10 -11
0 -20 -4 -20 -10z"/>
<path d="M80 7964 c0 -8 5 -12 10 -9 6 4 8 11 5 16 -9 14 -15 11 -15 -7z"/>
<path d="M145 7971 c-3 -5 -1 -12 5 -16 5 -3 10 1 10 9 0 18 -6 21 -15 7z"/>
<path d="M2 7758 l-2 -88 43 2 42 1 -37 4 -37 4 -4 82 -3 82 -2 -87z"/>
<path d="M5110 7681 c0 -15 -110 -153 -164 -206 -75 -73 -171 -155 -183 -155
-5 0 -21 -13 -34 -28 -14 -15 -38 -37 -55 -49 -51 -38 -6 -25 104 31 59 30
131 64 160 76 l54 21 146 -75 c81 -41 185 -94 232 -118 l85 -44 5 -66 c3 -36
7 -68 10 -70 3 -2 36 -18 73 -36 l68 -32 37 19 c20 10 54 26 74 34 l38 16 177
-91 c98 -50 227 -117 287 -149 60 -33 113 -59 117 -59 13 0 81 32 110 52 15
10 62 32 105 49 85 33 105 46 77 46 -10 0 -21 -5 -25 -11 -5 -7 -8 -5 -8 5 0
11 -27 30 -72 53 -40 20 -93 47 -118 61 -25 13 -108 54 -185 92 -77 37 -141
71 -143 76 -2 4 -11 7 -20 7 -9 0 -52 20 -96 45 -43 25 -82 45 -87 45 -10 0
-51 22 -59 31 -3 3 -17 12 -33 20 -15 8 -80 42 -145 75 -64 34 -165 86 -223
116 -59 31 -133 73 -165 94 -65 42 -136 112 -128 125 3 5 0 9 -5 9 -6 0 -11
-4 -11 -9z m50 -371 c8 -5 10 -10 4 -10 -7 0 -22 9 -35 21 -19 16 -20 18 -4
10 11 -6 27 -15 35 -21z"/>
<path d="M4579 7060 c-10 -8 -31 -28 -49 -43 -18 -16 -29 -31 -26 -34 3 -4 72
-40 153 -82 l148 -76 3 -55 c6 -101 -1 -114 -73 -151 -36 -18 -65 -34 -65 -36
0 -8 48 11 168 68 67 33 127 59 132 59 6 0 27 -9 47 -20 20 -11 38 -19 39 -17
1 1 -1 45 -3 97 -5 91 -7 96 -31 108 -14 7 -32 12 -39 12 -7 0 -13 6 -13 13 0
7 -9 13 -21 14 -11 1 -28 8 -36 15 -16 13 -140 67 -223 96 -25 9 -50 22 -56
30 -9 13 -12 12 -19 -4 -7 -18 -8 -18 -14 1 -5 19 -8 19 -22 5z"/>
<path d="M3764 6990 c-4 -14 -8 -28 -9 -32 0 -4 -7 -15 -15 -25 -34 -40 -62
-85 -70 -111 l-8 -29 237 -117 c130 -64 239 -116 242 -116 4 0 59 25 123 55
108 52 143 74 96 62 -11 -3 -20 -2 -20 2 0 3 -30 15 -67 25 -38 11 -89 30
-115 43 -26 12 -68 30 -94 39 -25 8 -68 29 -94 45 -26 16 -51 29 -56 29 -8 0
-81 47 -100 65 -5 6 -17 28 -26 50 -15 38 -16 38 -24 15z"/>
<path d="M5460 6938 c-99 -26 -259 -104 -307 -151 -47 -44 -43 -63 14 -72 25
-4 58 -12 72 -18 14 -6 31 -12 36 -12 26 -4 64 -26 74 -42 8 -14 11 -15 11 -3
0 8 7 2 14 -15 8 -16 22 -39 33 -50 18 -18 18 -21 4 -33 -14 -11 -14 -11 3 -5
14 5 17 3 11 -7 -5 -8 -4 -11 2 -7 6 4 32 -9 59 -28 27 -19 44 -35 38 -35 -5
0 -19 7 -30 15 -10 8 -23 14 -29 15 -5 0 4 -9 20 -20 17 -11 38 -19 48 -16 10
2 14 0 10 -7 -4 -7 0 -8 11 -4 10 4 15 3 11 -3 -3 -5 15 -20 40 -32 45 -22 46
-22 93 -4 80 31 101 35 96 23 -4 -12 5 -18 123 -75 37 -19 99 -49 136 -68 38
-19 73 -34 79 -34 5 0 21 -9 35 -20 24 -19 25 -19 79 8 l55 27 -29 7 c-16 5
-35 15 -42 23 -7 8 -17 15 -22 15 -5 0 -30 15 -56 32 -52 36 -85 56 -154 93
-26 13 -49 29 -53 35 -4 6 -11 8 -16 5 -5 -4 -9 -1 -9 4 0 6 -5 11 -10 11 -6
0 -29 12 -53 27 -60 39 -87 53 -103 53 -8 0 -14 5 -14 10 0 6 -7 10 -15 10 -8
0 -15 5 -15 11 0 5 -4 8 -10 4 -5 -3 -17 -1 -27 4 -55 29 -148 71 -160 71 -7
0 -13 4 -13 9 0 8 -56 25 -72 22 -5 0 -8 4 -8 10 0 5 -4 7 -10 4 -6 -4 -10 14
-10 47 l0 53 83 43 c46 24 84 49 84 56 0 8 -8 11 -18 9 -9 -3 -25 -1 -35 5
-12 5 -33 6 -54 0z"/>
<path d="M4422 6538 c9 -24 7 -36 -6 -59 -15 -25 -15 -28 -1 -23 8 3 15 11 16
18 1 6 4 0 8 -14 5 -16 7 -2 7 40 -1 54 -4 66 -18 67 -14 1 -15 -3 -6 -29z"/>
<path d="M4731 6446 c-21 -25 -97 -76 -104 -70 -3 3 -8 -4 -12 -15 -3 -12 -14
-21 -23 -22 -9 0 81 -49 201 -110 120 -60 228 -109 240 -109 23 1 190 79 170
80 -6 0 -24 -5 -40 -10 -26 -9 -27 -9 -9 5 19 14 19 15 -8 15 -15 0 -65 18
-109 39 -179 86 -260 121 -268 116 -7 -5 -14 23 -22 84 -2 11 -5 10 -16 -3z"/>
<path d="M4425 6420 c10 -11 20 -20 23 -20 3 0 -3 9 -13 20 -10 11 -20 20 -23
20 -3 0 3 -9 13 -20z"/>
<path d="M2740 6208 c0 -7 5 -20 10 -28 8 -12 10 -9 10 13 0 15 -4 27 -10 27
-5 0 -10 -6 -10 -12z"/>
<path d="M2377 6203 c-6 -11 9 -49 23 -58 7 -5 9 2 4 22 -8 32 -19 49 -27 36z"/>
<path d="M2770 6184 c0 -14 4 -23 9 -20 5 3 7 15 4 26 -7 28 -13 25 -13 -6z"/>
<path d="M2436 6172 c-4 -6 -1 -22 5 -34 15 -28 23 -11 11 22 -6 15 -11 19
-16 12z"/>
<path d="M2468 6134 c2 -13 8 -21 13 -19 4 3 12 -3 18 -12 9 -16 10 -15 11 8
0 18 -7 29 -23 36 -22 10 -23 9 -19 -13z"/>
<path d="M2520 6105 c0 -14 2 -25 4 -25 2 0 11 -3 19 -6 26 -10 27 24 1 40
-23 16 -24 16 -24 -9z m32 -9 c7 4 8 2 4 -5 -9 -13 -26 -5 -25 12 0 9 2 8 6
-1 2 -6 10 -9 15 -6z"/>
<path d="M2577 6080 c-3 -11 -2 -22 3 -25 4 -3 10 4 13 15 3 11 2 22 -3 25 -4
3 -10 -4 -13 -15z"/>
<path d="M2612 6058 c2 -13 8 -23 13 -23 6 0 11 10 13 23 2 15 -2 22 -13 22
-11 0 -15 -7 -13 -22z"/>
<path d="M3030 6076 c0 -2 7 -9 15 -16 13 -11 14 -10 9 4 -5 14 -24 23 -24 12z"/>
<path d="M2650 6051 c0 -5 3 -17 7 -27 6 -16 7 -16 14 2 7 17 8 17 8 -3 1 -13
5 -23 10 -23 13 0 10 43 -4 52 -14 11 -35 10 -35 -1z"/>
<path d="M2374 5995 c0 -25 6 -45 11 -45 6 0 10 19 8 43 -2 41 -2 42 6 7 6
-27 9 -31 15 -18 9 20 -9 58 -28 58 -9 0 -13 -14 -12 -45z"/>
<path d="M3062 6020 c0 -14 2 -19 5 -12 2 6 2 18 0 25 -3 6 -5 1 -5 -13z"/>
<path d="M2450 5976 c0 -31 2 -56 4 -56 2 0 12 -3 21 -7 15 -5 16 -3 6 15 -6
11 -11 36 -11 56 0 19 -4 38 -10 41 -6 4 -10 -15 -10 -49z"/>
<path d="M2710 6008 c0 -19 2 -20 10 -8 8 13 10 12 10 -4 0 -15 3 -17 11 -9
15 15 4 43 -16 43 -9 0 -15 -9 -15 -22z"/>
<path d="M2772 5984 c2 -15 9 -29 16 -32 10 -3 13 4 10 24 -2 15 -9 29 -16 32
-10 3 -13 -4 -10 -24z"/>
<path d="M7240 5999 c0 -5 5 -7 10 -4 6 3 10 8 10 11 0 2 -4 4 -10 4 -5 0 -10
-5 -10 -11z"/>
<path d="M2502 5943 c3 -45 28 -76 28 -34 0 11 5 23 10 26 6 3 10 -1 10 -9 0
-8 5 -18 11 -22 18 -11 -1 59 -20 73 -32 24 -42 16 -39 -34z m15 -35 c-3 -7
-5 -2 -5 12 0 14 2 19 5 13 2 -7 2 -19 0 -25z"/>
<path d="M2812 5958 c2 -12 10 -23 18 -23 22 0 19 39 -3 43 -15 3 -18 -1 -15
-20z"/>
<path d="M2581 5928 c1 -39 13 -76 21 -62 14 24 18 67 7 80 -19 23 -29 16 -28
-18z m29 -3 c0 -8 -4 -15 -10 -15 -5 0 -7 7 -4 15 4 8 8 15 10 15 2 0 4 -7 4
-15z"/>
<path d="M2860 5938 c0 -4 0 -11 -1 -15 0 -4 9 -10 20 -15 18 -6 21 -3 21 17
0 18 -5 23 -20 22 -11 -1 -20 -5 -20 -9z"/>
<path d="M3281 5934 c5 -7 8 -30 5 -51 -4 -30 -4 -33 3 -13 15 41 13 77 -4 77
-11 0 -12 -4 -4 -13z"/>
<path d="M2910 5921 c0 -5 8 -19 19 -32 l18 -23 8 23 c5 16 3 26 -6 32 -18 11
-39 11 -39 0z"/>
<path d="M7131 5914 c0 -11 3 -14 6 -6 3 7 2 16 -1 19 -3 4 -6 -2 -5 -13z"/>
<path d="M2632 5880 c-6 -24 -6 -40 -1 -40 5 0 12 13 15 30 8 40 27 26 22 -16
-2 -21 1 -35 9 -38 21 -9 17 68 -5 87 -26 24 -28 22 -40 -23z"/>
<path d="M2716 5884 c-3 -9 -6 -33 -6 -55 0 -28 4 -39 15 -39 11 0 15 12 15
49 0 50 -13 74 -24 45z"/>
<path d="M2970 5888 c0 -7 5 -20 10 -28 8 -12 10 -9 10 13 0 15 -4 27 -10 27
-5 0 -10 -6 -10 -12z"/>
<path d="M3000 5870 c0 -26 36 -46 44 -24 4 10 -1 22 -11 30 -25 19 -33 17
-33 -6z m17 -12 c-3 -8 -6 -5 -6 6 -1 11 2 17 5 13 3 -3 4 -12 1 -19z"/>
<path d="M7461 5867 c-8 -10 -7 -14 4 -14 8 0 15 6 15 14 0 7 -2 13 -4 13 -2
0 -9 -6 -15 -13z"/>
<path d="M2762 5832 c2 -22 -1 -38 -6 -35 -5 3 -7 0 -4 -7 2 -8 10 -16 16 -18
16 -5 16 84 1 94 -8 5 -10 -6 -7 -34z"/>
<path d="M3065 5849 c5 -15 4 -19 -4 -15 -6 4 -11 5 -11 2 0 -3 9 -10 20 -16
17 -9 20 -8 20 14 0 13 -7 27 -16 30 -12 5 -14 1 -9 -15z"/>
<path d="M3450 5826 c0 -21 6 -36 15 -40 12 -4 15 2 15 28 0 21 -6 36 -15 40
-12 4 -15 -2 -15 -28z m17 -8 c-3 -8 -6 -5 -6 6 -1 11 2 17 5 13 3 -3 4 -12 1
-19z"/>
<path d="M7410 5841 c0 -12 5 -21 10 -21 6 0 10 6 10 14 0 8 -4 18 -10 21 -5
3 -10 -3 -10 -14z"/>
<path d="M7812 5830 c0 -14 2 -19 5 -12 2 6 2 18 0 25 -3 6 -5 1 -5 -13z"/>
<path d="M2798 5799 c-2 -22 0 -43 4 -45 4 -2 9 15 11 38 l4 43 1 -47 c2 -57
22 -65 22 -10 0 35 -14 62 -31 62 -4 0 -9 -18 -11 -41z"/>
<path d="M3118 5835 c-7 -7 3 -55 11 -55 4 0 6 14 3 30 -4 32 -5 33 -14 25z"/>
<path d="M7370 5825 c0 -8 5 -15 10 -15 6 0 10 7 10 15 0 8 -4 15 -10 15 -5 0
-10 -7 -10 -15z"/>
<path d="M7760 5835 c0 -5 5 -17 10 -25 5 -8 10 -10 10 -5 0 6 -5 17 -10 25
-5 8 -10 11 -10 5z"/>
<path d="M6621 5814 c0 -11 3 -14 6 -6 3 7 2 16 -1 19 -3 4 -6 -2 -5 -13z"/>
<path d="M7340 5813 c0 -13 5 -23 10 -23 13 0 13 11 0 30 -8 12 -10 11 -10 -7z"/>
<path d="M3151 5812 c0 -4 4 -16 9 -27 7 -17 9 -17 9 -2 1 28 19 20 23 -10 l3
-28 6 27 c5 23 2 29 -22 37 -16 5 -29 7 -28 3z"/>
<path d="M2873 5755 c0 -33 2 -45 4 -27 2 18 2 45 0 60 -2 15 -4 0 -4 -33z"/>
<path d="M7307 5790 c3 -11 7 -20 9 -20 2 0 4 9 4 20 0 11 -4 20 -9 20 -5 0
-7 -9 -4 -20z"/>
<path d="M2382 5774 c-10 -19 4 -64 20 -64 15 0 8 28 -8 34 -13 5 -14 9 -4 21
7 9 10 18 7 21 -3 3 -10 -2 -15 -12z"/>
<path d="M2910 5770 c-7 -13 -7 -20 0 -20 5 0 10 -11 10 -25 0 -14 4 -25 10
-25 5 0 7 15 5 33 -4 25 -3 28 4 12 5 -11 10 -30 10 -41 1 -12 9 -25 19 -29
14 -5 15 -4 5 6 -7 7 -13 30 -13 51 0 27 -5 40 -20 48 -15 8 -21 6 -30 -10z"/>
<path d="M3220 5766 c0 -14 5 -28 10 -31 6 -4 10 7 10 24 0 17 -4 31 -10 31
-5 0 -10 -11 -10 -24z"/>
<path d="M3650 5762 c5 -9 12 -35 16 -57 4 -24 9 -33 12 -22 6 30 -7 85 -23
91 -11 4 -13 1 -5 -12z"/>
<path d="M7222 5750 c0 -14 2 -19 5 -12 2 6 2 18 0 25 -3 6 -5 1 -5 -13z"/>
<path d="M7609 5753 c-13 -16 -12 -17 4 -4 9 7 17 15 17 17 0 8 -8 3 -21 -13z"/>
<path d="M3270 5730 c0 -16 5 -30 11 -30 5 0 7 5 4 10 -9 15 4 30 20 23 8 -3
15 -13 15 -23 0 -11 4 -21 9 -24 15 -10 -2 49 -18 61 -27 21 -41 15 -41 -17z"/>
<path d="M2990 5707 c0 -38 4 -47 21 -52 35 -11 44 9 23 51 -28 55 -44 55 -44
1z m36 -44 c-11 -11 -24 9 -18 29 l5 22 9 -24 c5 -12 6 -25 4 -27z"/>
<path d="M7180 5730 c0 -11 4 -20 9 -20 5 0 7 9 4 20 -3 11 -7 20 -9 20 -2 0
-4 -9 -4 -20z"/>
<path d="M7462 5730 c0 -14 2 -19 5 -12 2 6 2 18 0 25 -3 6 -5 1 -5 -13z"/>
<path d="M3340 5733 c0 -6 5 -15 10 -18 6 -3 10 -17 10 -31 0 -13 4 -24 9 -24
4 0 6 11 3 25 -4 21 -1 24 14 20 11 -3 8 0 -6 7 -14 7 -28 17 -32 23 -5 6 -8
6 -8 -2z"/>
<path d="M3720 5690 c0 -29 3 -50 7 -47 3 4 6 25 6 47 0 22 -3 43 -6 47 -4 3
-7 -18 -7 -47z"/>
<path d="M7151 5724 c0 -11 3 -14 6 -6 3 7 2 16 -1 19 -3 4 -6 -2 -5 -13z"/>
<path d="M2437 5723 c-8 -14 12 -53 27 -53 12 0 13 5 5 30 -11 29 -23 38 -32
23z"/>
<path d="M3064 5706 c-3 -8 -4 -25 -1 -38 4 -20 5 -19 7 7 2 23 5 18 10 -20
l7 -50 1 52 c2 50 -12 79 -24 49z"/>
<path d="M6378 5697 c-3 -19 -2 -25 4 -19 6 6 8 18 6 28 -3 14 -5 12 -10 -9z"/>
<path d="M7416 5705 c-3 -9 -6 -26 -5 -38 1 -16 4 -12 10 12 10 34 6 55 -5 26z"/>
<path d="M7561 5704 c0 -11 3 -14 6 -6 3 7 2 16 -1 19 -3 4 -6 -2 -5 -13z"/>
<path d="M7806 5680 c8 -43 14 -51 14 -19 0 13 -5 31 -10 39 -7 11 -8 5 -4
-20z"/>
<path d="M2495 5680 c-4 -12 -5 -24 -2 -27 3 -2 8 5 12 17 4 12 5 24 2 27 -3
2 -8 -5 -12 -17z"/>
<path d="M7060 5680 c0 -11 2 -20 4 -20 2 0 6 9 9 20 3 11 1 20 -4 20 -5 0 -9
-9 -9 -20z"/>
<path d="M7372 5670 c0 -19 2 -27 5 -17 2 9 2 25 0 35 -3 9 -5 1 -5 -18z"/>
<path d="M2526 5663 c9 -37 14 -42 14 -14 0 28 20 17 21 -12 1 -19 2 -19 6 -3
4 17 6 16 17 -5 12 -26 41 -33 41 -10 0 7 -24 26 -53 43 l-53 29 7 -28z"/>
<path d="M3120 5640 c0 -41 3 -50 18 -49 10 0 12 3 5 6 -15 6 -18 63 -3 63 6
0 10 7 10 15 0 8 -7 15 -15 15 -11 0 -15 -12 -15 -50z"/>
<path d="M3420 5668 c0 -15 5 -30 10 -33 13 -8 13 25 0 45 -8 12 -10 9 -10
-12z"/>
<path d="M3391 5664 c0 -11 3 -14 6 -6 3 7 2 16 -1 19 -3 4 -6 -2 -5 -13z"/>
<path d="M7736 5672 c6 -4 15 -17 19 -30 9 -32 18 -21 9 12 -3 15 -13 26 -23
26 -10 0 -12 -3 -5 -8z"/>
<path d="M3181 5660 c0 -8 4 -24 9 -35 l9 -20 0 20 c0 11 -4 27 -9 35 -9 13
-10 13 -9 0z"/>
<path d="M3790 5664 c0 -5 7 -19 15 -30 8 -10 15 -14 15 -8 0 5 -7 19 -15 30
-8 10 -15 14 -15 8z"/>
<path d="M6997 5663 c-4 -3 -7 -19 -7 -35 0 -29 13 -37 26 -16 4 7 3 8 -4 4
-16 -10 -16 26 0 42 7 7 8 12 2 12 -6 0 -14 -3 -17 -7z"/>
<path d="M3492 5633 c2 -14 8 -28 14 -30 7 -2 9 8 6 27 -5 37 -25 40 -20 3z"/>
<path d="M7302 5635 c0 -16 2 -22 5 -12 2 9 2 23 0 30 -3 6 -5 -1 -5 -18z"/>
<path d="M3890 5616 c0 -35 21 -63 40 -51 16 10 12 50 -8 68 -27 24 -32 21
-32 -17z m40 -29 c0 -33 -25 -12 -27 24 -2 32 -2 33 12 15 8 -11 15 -28 15
-39z"/>
<path d="M7667 5643 c-3 -5 -1 -17 4 -28 7 -17 8 -17 8 8 1 27 -4 34 -12 20z"/>
<path d="M2380 5596 c0 -25 5 -46 10 -46 6 0 10 18 10 39 0 22 -4 43 -10 46
-6 4 -10 -12 -10 -39z"/>
<path d="M3217 5633 c-4 -3 -7 -16 -6 -27 0 -19 1 -19 10 3 10 24 8 36 -4 24z"/>
<path d="M7250 5633 c0 -4 5 -15 10 -23 8 -13 10 -13 10 2 0 9 -4 20 -10 23
-5 3 -10 3 -10 -2z"/>
<path d="M3274 5601 c0 -21 7 -36 16 -38 10 -3 11 -2 3 4 -6 4 -13 22 -16 38
-4 27 -5 27 -3 -4z"/>
<path d="M3530 5605 c0 -14 5 -25 10 -25 6 0 10 11 10 25 0 14 -4 25 -10 25
-5 0 -10 -11 -10 -25z"/>
<path d="M2636 5604 c-7 -18 0 -34 15 -34 5 0 9 11 9 25 0 28 -15 34 -24 9z"/>
<path d="M3566 5602 c-2 -4 -1 -14 5 -22 7 -12 9 -10 9 8 0 23 -5 28 -14 14z"/>
<path d="M2677 5593 c-4 -3 -7 -13 -7 -22 1 -13 3 -12 11 3 9 15 13 16 20 5 4
-7 4 -16 -1 -19 -5 -3 0 -11 10 -18 18 -11 20 -10 20 11 0 35 -33 60 -53 40z"/>
<path d="M3615 5579 c12 -39 27 -48 23 -15 -2 16 -9 31 -17 34 -10 3 -11 -2
-6 -19z"/>
<path d="M2440 5565 c0 -14 8 -29 20 -35 22 -12 25 -4 14 38 -8 30 -34 28 -34
-3z m28 -20 c-3 -3 -9 2 -12 12 -6 14 -5 15 5 6 7 -7 10 -15 7 -18z"/>
<path d="M7571 5574 c0 -11 3 -14 6 -6 3 7 2 16 -1 19 -3 4 -6 -2 -5 -13z"/>
<path d="M3191 5573 c-1 -6 -4 -20 -7 -30 -5 -17 -5 -17 6 0 6 10 9 23 6 30
-3 9 -5 9 -5 0z"/>
<path d="M3376 5538 c8 -59 11 -68 26 -68 9 0 9 3 0 12 -7 7 -12 29 -12 49 0
21 -5 41 -10 44 -7 4 -8 -8 -4 -37z"/>
<path d="M7513 5540 c0 -25 2 -35 4 -22 2 12 2 32 0 45 -2 12 -4 2 -4 -23z"/>
<path d="M2509 5568 c-9 -23 -5 -57 7 -62 10 -4 14 3 14 24 0 16 -4 32 -10 35
-5 3 -11 5 -11 3z"/>
<path d="M2742 5548 c2 -15 9 -22 21 -20 9 2 17 -3 17 -11 0 -8 7 -17 15 -21
11 -4 15 1 15 18 0 26 -13 40 -48 51 -21 6 -23 4 -20 -17z m55 -30 c-3 -8 -6
-5 -6 6 -1 11 2 17 5 13 3 -3 4 -12 1 -19z"/>
<path d="M3310 5560 c0 -5 5 -10 11 -10 5 0 7 5 4 10 -3 6 -8 10 -11 10 -2 0
-4 -4 -4 -10z"/>
<path d="M3663 5556 c4 -10 7 -22 7 -27 0 -5 5 -9 11 -9 15 0 7 43 -10 48 -10
3 -12 0 -8 -12z"/>
<path d="M4074 5522 c-1 -36 0 -41 6 -22 11 33 12 70 3 70 -5 0 -9 -21 -9 -48z"/>
<path d="M3420 5507 c0 -26 5 -47 10 -47 6 0 8 16 4 43 -9 58 -14 59 -14 4z"/>
<path d="M3727 5543 c-4 -6 0 -19 8 -29 11 -15 14 -16 15 -4 0 21 -16 44 -23
33z"/>
<path d="M2560 5521 c0 -12 -4 -21 -10 -21 -5 0 -10 -5 -10 -11 0 -6 7 -9 15
-5 8 3 15 1 15 -4 0 -6 4 -10 10 -10 14 0 7 63 -8 68 -7 2 -12 -5 -12 -17z"/>
<path d="M2846 5518 c3 -12 13 -28 20 -36 12 -11 14 -8 14 20 0 25 -3 29 -10
18 -8 -13 -10 -12 -10 3 0 9 -5 17 -11 17 -6 0 -8 -9 -3 -22z"/>
<path d="M3445 5529 c-10 -15 3 -25 16 -12 7 7 7 13 1 17 -6 3 -14 1 -17 -5z"/>
<path d="M6392 5520 c0 -14 2 -19 5 -12 2 6 2 18 0 25 -3 6 -5 1 -5 -13z"/>
<path d="M7061 5524 c0 -11 3 -14 6 -6 3 7 2 16 -1 19 -3 4 -6 -2 -5 -13z"/>
<path d="M3480 5522 c0 -4 5 -13 11 -19 5 -5 14 -32 18 -59 l9 -49 1 52 c1 35
-4 57 -15 67 -17 18 -24 20 -24 8z"/>
<path d="M2600 5498 c0 -13 5 -30 10 -38 7 -11 10 -5 10 23 0 20 -4 37 -10 37
-5 0 -10 -10 -10 -22z"/>
<path d="M2634 5470 c-1 -17 3 -30 7 -30 5 0 9 9 9 20 0 11 0 23 1 27 0 4 -3
9 -8 10 -4 2 -8 -11 -9 -27z"/>
<path d="M3540 5471 c0 -40 11 -91 20 -91 4 0 5 21 2 46 -3 34 -2 45 7 40 6
-4 11 -3 11 1 0 5 -9 14 -20 21 -18 11 -20 10 -20 -17z"/>
<path d="M6997 5493 c-4 -3 -7 -16 -6 -27 0 -19 1 -19 10 3 10 24 8 36 -4 24z"/>
<path d="M3070 4535 c0 -674 3 -955 11 -955 6 0 81 -35 167 -77 86 -43 160
-80 165 -82 5 -2 7 170 5 382 -2 212 0 388 3 392 4 3 62 -22 130 -55 176 -89
286 -136 351 -150 157 -35 333 72 386 234 29 88 30 222 2 332 -26 102 -106
262 -170 341 -97 120 -143 149 -595 372 -231 115 -428 211 -437 214 -17 6 -18
-43 -18 -948z m543 334 c100 -50 202 -105 226 -121 76 -53 140 -166 141 -250
1 -89 -57 -157 -123 -142 -41 9 -117 45 -117 57 0 4 -3 6 -7 4 -5 -2 -78 30
-163 72 l-155 76 -3 185 c-2 175 0 210 13 210 4 0 88 -41 188 -91z"/>
<path d="M3740 5480 c0 -5 5 -10 11 -10 5 0 7 5 4 10 -3 6 -8 10 -11 10 -2 0
-4 -4 -4 -10z"/>
<path d="M2687 5473 c-13 -12 -7 -40 13 -58 18 -17 19 -16 26 9 8 35 -19 70
-39 49z m33 -34 c0 -11 -4 -17 -10 -14 -5 3 -10 13 -10 21 0 8 5 14 10 14 6 0
10 -9 10 -21z"/>
<path d="M6307 5464 c-4 -4 -7 -14 -7 -23 0 -11 3 -12 11 -4 6 6 10 16 7 23
-2 6 -7 8 -11 4z"/>
<path d="M6630 5450 c0 -11 4 -20 9 -20 5 0 7 9 4 20 -3 11 -7 20 -9 20 -2 0
-4 -9 -4 -20z"/>
<path d="M2844 5449 c-3 -5 6 -9 20 -9 31 0 34 6 6 13 -11 3 -23 1 -26 -4z"/>
<path d="M3600 5410 c0 -33 4 -50 13 -50 8 0 12 16 12 45 0 27 -5 47 -12 50
-9 3 -13 -10 -13 -45z"/>
<path d="M2377 5421 c-3 -12 3 -27 14 -37 11 -10 19 -12 19 -6 0 7 -4 12 -9
12 -4 0 -6 11 -3 25 5 29 -13 34 -21 6z"/>
<path d="M2764 5427 c3 -10 6 -25 6 -33 0 -8 5 -14 11 -14 12 0 2 40 -14 55
-7 7 -8 4 -3 -8z"/>
<path d="M3642 5410 c0 -19 2 -27 5 -17 2 9 2 25 0 35 -3 9 -5 1 -5 -18z"/>
<path d="M6226 5422 c-2 -4 -1 -14 5 -22 7 -12 9 -10 9 8 0 23 -5 28 -14 14z"/>
<path d="M4358 5384 c-2 -19 0 -37 4 -40 4 -3 8 13 8 35 0 51 -6 53 -12 5z"/>
<path d="M3680 5378 c0 -18 -3 -44 -6 -58 -4 -18 -3 -21 4 -10 13 21 22 100
11 100 -5 0 -9 -15 -9 -32z"/>
<path d="M6186 5397 c3 -10 9 -15 12 -12 3 3 0 11 -7 18 -10 9 -11 8 -5 -6z"/>
<path d="M3724 5374 c3 -9 6 -30 7 -47 l1 -32 9 35 c9 39 5 60 -12 60 -6 0 -8
-7 -5 -16z"/>
<path d="M6165 5380 c3 -5 8 -10 11 -10 2 0 4 5 4 10 0 6 -5 10 -11 10 -5 0
-7 -4 -4 -10z"/>
<path d="M2441 5364 c0 -11 3 -14 6 -6 3 7 2 16 -1 19 -3 4 -6 -2 -5 -13z"/>
<path d="M6135 5370 c3 -5 8 -10 11 -10 2 0 4 5 4 10 0 6 -5 10 -11 10 -5 0
-7 -4 -4 -10z"/>
<path d="M6087 5356 c-4 -10 -5 -21 -2 -24 9 -9 17 6 13 25 -3 17 -4 17 -11
-1z"/>
<path d="M3814 5310 c1 -34 5 -46 19 -48 14 -3 17 4 15 40 l-1 43 -4 -37 c-6
-51 -21 -48 -26 5 l-4 42 1 -45z"/>
<path d="M6893 5335 c-77 -21 -153 -55 -404 -180 -124 -63 -275 -136 -335
-163 -60 -27 -130 -59 -156 -72 l-48 -22 0 -808 0 -807 57 9 c78 12 129 5 209
-30 37 -17 73 -28 79 -25 9 3 12 49 13 155 1 191 6 220 38 235 14 6 33 9 41 6
10 -4 14 -2 10 4 -4 6 12 15 36 23 23 6 65 22 92 34 88 40 149 65 173 71 12 4
19 11 16 17 -4 6 -3 8 3 5 5 -3 38 1 74 8 35 8 118 22 184 31 135 18 162 32
216 111 43 62 89 155 82 166 -3 4 2 14 10 20 16 13 37 109 37 170 0 52 -36
167 -52 167 -5 0 -8 6 -8 14 0 17 -39 88 -55 98 -5 4 -10 13 -10 20 0 7 -13
16 -30 21 -26 7 -42 2 -110 -38 -149 -85 -323 -124 -415 -91 -25 9 -51 16 -59
16 -7 0 -61 -23 -119 -50 -144 -69 -146 -69 -152 5 -3 38 -9 59 -17 58 -19 -4
-26 55 -24 197 3 164 4 179 14 173 4 -2 8 15 8 39 l2 43 7 -35 7 -35 2 45 c1
25 6 53 9 63 9 20 56 47 84 47 11 0 16 4 12 11 -4 8 1 9 16 4 17 -5 21 -4 15
5 -5 8 -4 11 3 6 6 -4 26 0 45 7 39 17 51 14 197 -55 52 -25 113 -52 134 -59
95 -34 125 -109 88 -222 -11 -34 -15 -54 -8 -45 8 10 17 14 26 8 24 -15 190
56 190 83 0 4 7 7 15 7 8 0 15 7 15 15 0 9 7 18 15 21 8 4 15 12 15 20 0 8 7
14 15 14 8 0 12 6 9 14 -3 8 0 17 6 21 8 5 8 11 -1 21 -9 11 -9 13 2 9 12 -4
13 12 11 90 -2 52 -7 95 -11 95 -5 0 -11 18 -15 40 -3 22 -11 40 -16 40 -6 0
-10 7 -10 15 0 8 -4 15 -10 15 -5 0 -10 14 -10 31 0 23 -4 30 -15 26 -8 -4
-17 -2 -20 2 -7 12 21 22 43 15 9 -3 6 1 -8 9 -18 11 -28 12 -38 4 -10 -8 -12
-7 -10 3 7 29 -121 38 -209 15z m-215 -959 c26 -13 88 -38 137 -55 50 -18 99
-38 111 -46 56 -36 70 -145 30 -230 -39 -84 -101 -130 -329 -242 -231 -114
-305 -148 -312 -141 -3 3 -6 48 -8 101 -1 53 -3 92 -5 86 -7 -19 -22 -8 -22
17 0 16 -4 23 -12 18 -8 -5 -9 2 -5 26 4 18 7 84 7 146 0 95 2 112 14 108 8
-3 17 -13 19 -22 4 -16 5 -16 6 0 0 9 -3 20 -9 23 -5 3 -9 23 -9 43 l1 37 8
-30 c7 -26 8 -24 9 20 2 96 -15 84 206 142 33 8 65 17 70 18 26 8 49 3 93 -19z
m-401 -1018 c-3 -7 -5 -2 -5 12 0 14 2 19 5 13 2 -7 2 -19 0 -25z"/>
<path d="M6281 4024 c0 -11 3 -14 6 -6 3 7 2 16 -1 19 -3 4 -6 -2 -5 -13z"/>
<path d="M7473 5310 c0 -25 2 -35 4 -22 2 12 2 32 0 45 -2 12 -4 2 -4 -23z"/>
<path d="M4080 5327 c0 -7 7 -22 16 -33 14 -17 15 -17 10 -1 -3 10 -6 25 -6
33 0 8 -4 14 -10 14 -5 0 -10 -6 -10 -13z"/>
<path d="M6040 5321 c0 -25 6 -27 13 -6 4 8 2 17 -3 20 -6 4 -10 -3 -10 -14z"/>
<path d="M7496 5314 c-4 -9 -4 -19 -1 -22 2 -3 7 3 11 12 4 9 4 19 1 22 -2 3
-7 -3 -11 -12z"/>
<path d="M5576 5294 c-5 -14 -4 -15 9 -4 17 14 19 20 6 20 -5 0 -12 -7 -15
-16z"/>
<path d="M5965 5300 c-3 -5 -1 -18 4 -27 9 -16 10 -14 11 10 0 28 -5 34 -15
17z"/>
<path d="M2570 5291 c0 -6 5 -13 10 -16 6 -3 10 1 10 9 0 9 -4 16 -10 16 -5 0
-10 -4 -10 -9z"/>
<path d="M4600 5298 c0 -2 7 -21 16 -43 15 -39 15 -39 9 -6 -3 18 -5 37 -5 42
0 5 -4 9 -10 9 -5 0 -10 -1 -10 -2z"/>
<path d="M5932 5270 c0 -14 2 -19 5 -12 2 6 2 18 0 25 -3 6 -5 1 -5 -13z"/>
<path d="M6190 5240 c0 -65 14 -65 17 0 1 28 -3 50 -8 50 -5 0 -9 -22 -9 -50z"/>
<path d="M2383 5245 c0 -22 2 -30 4 -17 2 12 2 30 0 40 -3 9 -5 -1 -4 -23z"/>
<path d="M3770 5265 c0 -8 2 -15 4 -15 2 0 6 7 10 15 3 8 1 15 -4 15 -6 0 -10
-7 -10 -15z"/>
<path d="M5906 5265 c-9 -26 -7 -32 5 -12 6 10 9 21 6 23 -2 3 -7 -2 -11 -11z"/>
<path d="M6233 5243 c-10 -34 -10 -36 3 -19 12 17 20 56 11 56 -1 0 -7 -17
-14 -37z"/>
<path d="M2682 5239 c6 -16 12 -29 13 -27 6 6 -8 58 -16 58 -4 0 -3 -14 3 -31z"/>
<path d="M2400 5256 c0 -4 6 -14 14 -22 8 -7 12 -23 9 -34 -7 -27 14 -26 22 1
4 11 5 21 3 22 -1 1 -13 11 -25 21 -13 11 -23 16 -23 12z"/>
<path d="M5865 5250 c3 -5 8 -10 11 -10 2 0 4 5 4 10 0 6 -5 10 -11 10 -5 0
-7 -4 -4 -10z"/>
<path d="M6142 5230 c0 -19 2 -27 5 -17 2 9 2 25 0 35 -3 9 -5 1 -5 -18z"/>
<path d="M5840 5236 c0 -9 5 -16 10 -16 6 0 10 4 10 9 0 6 -4 13 -10 16 -5 3
-10 -1 -10 -9z"/>
<path d="M3994 5221 c20 -22 26 -25 26 -13 0 4 -10 13 -22 21 -23 14 -23 14
-4 -8z"/>
<path d="M5805 5220 c3 -5 8 -10 11 -10 2 0 4 5 4 10 0 6 -5 10 -11 10 -5 0
-7 -4 -4 -10z"/>
<path d="M0 2610 l0 -2610 1120 0 1120 0 0 40 0 40 -40 0 -40 0 0 40 0 40 40
0 40 0 0 40 0 40 -40 0 c-33 0 -40 3 -40 20 0 18 -7 20 -80 20 -73 0 -80 2
-80 20 0 17 7 20 40 20 l40 0 0 40 0 40 -40 0 c-34 0 -40 -3 -40 -21 0 -14 -5
-19 -17 -17 -26 5 -29 38 -4 38 18 0 21 6 21 39 0 40 0 40 43 44 l42 4 -42 1
-43 2 0 80 c0 78 1 80 23 77 12 -2 16 -2 10 0 -7 3 -13 11 -13 19 0 8 -4 14
-10 14 -5 0 -10 7 -10 15 0 20 39 28 117 23 37 -2 61 -2 55 0 -7 2 -12 22 -12
44 l0 40 78 -4 c42 -3 60 -3 40 -1 -45 5 -49 21 -13 58 24 23 32 25 120 25 95
0 95 0 95 25 0 16 6 25 15 25 9 0 20 11 25 25 5 14 16 25 25 25 8 0 15 5 15
10 0 6 18 10 40 10 33 0 40 3 40 20 0 11 7 20 15 20 9 0 27 7 40 16 23 15 25
15 25 0 0 -12 10 -16 40 -16 26 0 40 5 40 13 0 7 15 18 33 25 43 15 47 15 47
-3 0 -13 5 -12 38 3 20 9 39 20 40 25 2 4 21 7 43 7 26 0 37 4 35 13 -1 6 -1
9 1 5 8 -14 31 -9 79 17 32 17 51 22 58 15 18 -18 26 -11 26 21 0 30 1 31 38
24 24 -4 50 -1 74 10 46 19 48 19 48 -1 0 -9 3 -14 8 -12 32 16 64 27 102 37
25 7 79 21 120 32 41 12 100 23 130 26 30 3 67 11 82 19 15 8 37 14 50 14 13
1 34 7 48 15 14 8 46 14 71 15 29 0 51 6 59 15 9 11 17 12 31 4 15 -7 19 -6
19 6 0 11 11 15 38 16 20 0 46 2 57 4 11 2 52 9 90 16 39 6 79 15 90 20 11 4
39 11 63 14 72 11 85 14 157 30 39 9 104 23 145 31 41 9 102 22 135 31 142 36
182 45 220 50 22 3 43 10 46 15 3 5 19 10 35 11 16 1 32 7 36 12 5 6 8 6 8 -2
0 -8 8 -9 28 -3 15 5 46 14 70 20 23 6 40 15 37 20 -4 6 0 11 7 11 7 1 18 2
23 4 6 1 26 3 45 3 26 2 31 5 22 14 -9 9 -5 15 19 25 17 7 40 13 50 13 11 0
19 5 19 10 0 6 12 10 26 10 18 0 28 6 31 20 4 14 11 19 23 15 12 -4 29 4 47
22 33 33 34 33 73 33 21 0 28 4 24 14 -5 13 16 22 71 33 10 2 22 8 25 12 3 5
18 13 33 16 15 4 27 14 27 22 0 8 5 13 12 11 7 -3 25 8 40 24 15 15 33 28 40
28 9 0 9 -3 -2 -10 -8 -5 -10 -10 -4 -10 6 0 14 3 18 8 8 7 13 8 42 11 8 0 13
5 9 10 -7 12 61 46 88 44 13 -1 17 3 13 13 -3 8 -2 13 3 9 14 -8 41 5 41 20 0
8 17 16 39 20 37 6 58 26 46 45 -3 4 6 7 19 6 13 0 22 -4 19 -8 -2 -5 6 -8 18
-8 19 0 59 33 59 49 0 13 60 32 80 26 11 -4 20 -2 20 4 0 6 10 12 23 12 16 1
18 2 5 6 -10 2 -18 9 -18 15 0 6 3 9 6 5 11 -10 83 34 78 47 -4 10 3 12 23 9
22 -4 25 -2 13 6 -8 6 -13 11 -10 11 3 1 24 3 47 5 46 4 129 45 126 62 -1 5 8
8 20 6 15 -3 34 7 61 32 22 20 45 34 52 31 8 -3 20 1 28 9 8 8 37 20 65 26 27
6 55 17 62 25 6 8 24 14 40 14 31 0 42 20 12 20 -14 1 80 40 94 40 1 0 0 7 -3
15 -5 12 2 14 42 11 27 -2 41 -2 32 1 -25 6 -22 23 3 23 15 0 19 4 15 16 -5
13 -1 15 17 10 28 -7 41 2 27 19 -8 9 3 11 45 10 49 -2 53 -1 38 11 -16 12
-15 13 14 14 26 0 31 3 26 17 -5 13 -2 15 11 10 11 -4 25 1 39 14 17 15 31 19
57 15 19 -3 29 -3 23 0 -22 10 -14 24 12 24 18 0 23 4 18 16 -4 11 0 15 13 14
42 -5 56 0 50 15 -4 11 0 15 12 13 9 -2 16 3 14 10 -1 6 1 11 5 11 5 -1 23 -1
42 0 27 1 31 4 22 15 -9 11 -8 15 4 20 9 3 13 2 10 -4 -3 -6 1 -10 9 -10 9 0
16 7 16 15 0 16 1 16 39 20 13 1 26 7 30 13 3 5 17 12 31 13 14 2 25 11 25 19
0 8 6 16 13 16 6 1 20 2 29 3 9 0 14 4 10 7 -7 8 24 44 39 44 7 0 27 12 44 27
30 25 31 28 15 40 -15 10 -16 15 -5 28 12 14 10 14 -15 5 -33 -13 -598 -295
-1090 -545 -187 -95 -639 -324 -1005 -510 -366 -186 -706 -359 -756 -386 -100
-54 -104 -55 -104 -36 0 17 -47 40 -62 31 -6 -4 -8 -3 -5 3 3 5 -13 18 -36 28
-23 10 -55 27 -70 37 -15 11 -35 17 -44 14 -13 -5 -14 -4 -4 8 9 11 9 14 -1
13 -23 -3 -88 27 -88 39 0 6 -17 15 -37 19 -27 5 -33 9 -22 16 10 6 5 9 -17 9
-17 0 -37 7 -44 15 -9 10 -9 15 -1 15 6 0 11 4 11 9 0 5 -10 7 -22 3 -20 -5
-21 -3 -10 10 11 13 9 17 -14 22 -16 4 -32 2 -38 -4 -8 -8 -6 -9 7 -5 10 4 17
2 17 -4 0 -12 -16 -13 -44 -2 -19 7 -19 8 2 13 12 4 22 12 22 20 -1 18 -116
71 -144 66 -17 -4 -22 -1 -20 11 3 11 -16 26 -64 49 -38 17 -74 32 -80 32 -7
0 -12 5 -12 10 0 6 -17 8 -42 5 l-43 -6 33 15 c17 8 32 20 32 26 0 12 -2 12
-34 0 -17 -6 -26 -6 -26 0 0 6 -4 10 -10 10 -5 0 -20 9 -32 20 -66 60 -73 63
-98 50 -11 -6 -20 -7 -20 -2 0 6 -8 12 -18 16 -9 3 -30 15 -47 26 -58 39 -76
45 -84 31 -6 -9 -11 -10 -15 -2 -4 6 -2 11 4 11 21 0 6 45 -15 47 -16 1 -16 1
-2 -3 9 -3 17 -12 17 -21 0 -14 -3 -13 -25 1 -13 9 -31 16 -40 16 -8 0 -15 5
-15 10 0 6 7 10 15 10 8 0 15 5 15 11 0 7 -10 9 -25 5 -19 -5 -25 -2 -25 10 0
14 -7 16 -42 11 -24 -3 -35 -3 -26 1 12 5 15 11 9 21 -5 8 -7 20 -4 28 3 9 -4
14 -23 15 -16 1 -36 2 -44 4 -8 1 -28 3 -45 4 l-30 3 35 7 35 7 -42 2 c-24 0
-43 5 -43 10 0 5 -11 12 -25 15 -14 4 -35 16 -46 27 -11 11 -24 17 -27 13 -4
-3 -1 -9 6 -11 6 -3 12 -12 12 -21 0 -13 -2 -13 -13 3 -11 14 -22 17 -45 12
-17 -4 -34 -2 -37 3 -3 6 -16 10 -28 11 -21 0 -21 1 -2 9 28 12 55 13 37 1
-11 -7 -11 -9 2 -14 9 -4 16 -2 16 3 0 6 7 10 15 10 8 0 15 4 15 8 0 10 -45
32 -64 32 -8 0 -16 7 -20 15 -6 18 -58 20 -88 4 -14 -8 -27 -8 -42 -1 -11 6
-28 13 -36 16 -8 3 4 3 28 0 23 -3 42 -4 42 -1 0 11 -84 48 -97 43 -24 -10
-36 5 -16 20 16 12 14 13 -17 8 -19 -3 -40 -7 -47 -9 -17 -5 -26 12 -11 18 7
3 -1 3 -18 0 -17 -3 -34 0 -38 5 -3 6 -14 9 -24 7 -9 -1 -11 0 -4 2 16 6 16
20 0 26 -10 4 -9 8 2 16 26 18 4 22 -39 6 -39 -14 -43 -13 -37 1 5 12 2 15
-11 9 -39 -15 -47 -16 -23 -1 14 8 36 13 50 10 15 -3 6 5 -23 20 -34 18 -56
24 -77 19 -19 -3 -30 -1 -30 6 0 6 9 11 20 11 11 0 20 5 20 10 0 6 -6 10 -14
10 -8 0 -18 -4 -21 -10 -8 -13 -40 -13 -63 -1 -9 5 -25 12 -35 15 -9 3 -20 13
-24 23 -9 23 -40 53 -56 53 -7 0 -19 -6 -26 -12 -10 -11 -11 -9 -5 6 6 17 4
18 -17 13 -13 -4 -28 -7 -33 -7 -4 0 2 -9 15 -19 l24 -20 -22 6 c-13 3 -23 10
-23 15 0 6 -6 8 -13 5 -8 -3 -14 1 -14 8 0 7 5 11 11 9 6 -2 18 1 26 6 13 9
13 11 0 20 -8 5 -24 7 -34 4 -15 -5 -18 -2 -13 15 4 18 1 21 -28 21 -18 0 -36
-6 -39 -12 -3 -7 -3 -2 1 12 5 21 4 23 -9 12 -20 -16 -68 3 -68 28 0 13 -12
19 -47 24 -28 4 -49 2 -53 -4 -4 -6 -13 -5 -26 5 -19 14 -19 14 0 15 25 0 18
6 -19 14 -22 5 -26 4 -15 -4 13 -8 13 -10 -2 -10 -9 0 -24 7 -33 16 -8 9 -22
14 -30 11 -7 -3 -16 -1 -19 6 -3 9 -5 9 -5 0 -1 -7 -5 -13 -11 -13 -6 0 -10
99 -10 278 0 440 -13 1170 -21 1137 -4 -16 -7 -25 -8 -20 -1 6 -6 3 -11 -5 -8
-12 -10 -11 -10 6 0 20 -7 23 -80 29 -44 4 -78 10 -76 14 2 3 -34 6 -80 6 -61
0 -84 -3 -84 -12 0 -19 -25 -16 -41 4 -8 10 -9 14 -2 10 6 -4 14 -3 17 2 10
16 -16 25 -28 9 -8 -10 -29 -14 -73 -14 -33 1 -59 4 -57 8 5 8 -28 28 -45 28
-6 0 -11 -8 -11 -18 0 -14 -8 -18 -43 -18 -37 0 -43 3 -39 18 4 15 -2 18 -37
18 -34 0 -41 3 -41 20 0 18 -7 20 -80 20 -73 0 -80 -2 -80 -20 0 -11 -4 -20
-10 -20 -5 0 -15 9 -22 20 -7 11 -21 20 -30 20 -11 0 -18 8 -18 20 0 18 -7 20
-80 20 -73 0 -80 2 -80 20 0 13 -7 20 -20 20 -11 0 -20 5 -20 10 0 6 -9 10
-20 10 -11 0 -20 5 -20 10 0 6 -9 10 -19 10 -11 0 -23 5 -26 10 -3 6 -13 10
-21 10 -8 0 -14 -4 -14 -10 0 -5 7 -10 15 -10 8 0 15 -4 15 -10 0 -5 -7 -10
-15 -10 -8 0 -15 -4 -15 -10 0 -5 -18 -10 -40 -10 -33 0 -40 3 -40 20 0 16 -7
20 -30 20 -23 0 -30 -4 -30 -20 0 -11 -4 -20 -10 -20 -5 0 -10 9 -10 20 0 11
5 20 10 20 16 0 11 37 -6 44 -9 3 -32 6 -53 6 -30 0 -44 8 -76 40 -21 22 -46
39 -55 39 -11 -1 -11 -2 3 -6 12 -3 17 -15 17 -41 l0 -36 -41 39 c-29 29 -36
41 -25 43 20 4 21 22 1 22 -8 0 -15 5 -15 10 0 6 7 10 15 10 8 0 15 4 15 9 0
11 -36 21 -77 21 -26 0 -33 -4 -33 -20 0 -17 -7 -20 -48 -20 -51 0 -72 12 -72
42 0 10 -9 23 -20 30 -36 23 -25 46 23 51 23 2 5 4 -40 5 l-83 2 0 35 c0 30
-3 35 -24 35 -14 0 -28 5 -31 10 -3 6 -10 10 -16 10 -5 0 -9 -986 -9 -2610z
m145 2500 c-3 -5 -13 -10 -21 -10 -8 0 -14 5 -14 10 0 6 9 10 21 10 11 0 17
-4 14 -10z m-45 -25 c0 -8 -4 -15 -10 -15 -5 0 -10 7 -10 15 0 8 5 15 10 15 6
0 10 -7 10 -15z m2625 -2134 c3 -5 2 -12 -3 -15 -5 -3 -9 1 -9 9 0 17 3 19 12
6z m44 -25 c10 -12 8 -13 -8 -9 -12 3 -21 9 -21 14 0 14 16 11 29 -5z m281
-140 c0 -3 -4 -8 -10 -11 -5 -3 -10 -1 -10 4 0 6 5 11 10 11 6 0 10 -2 10 -4z
m35 -16 c3 -5 -1 -10 -9 -10 -9 0 -16 5 -16 10 0 6 4 10 9 10 6 0 13 -4 16
-10z m52 -26 c-3 -3 -12 -4 -19 -1 -8 3 -5 6 6 6 11 1 17 -2 13 -5z m68 -33
c3 -5 0 -13 -6 -17 -7 -4 -9 -3 -5 4 3 5 0 13 -6 15 -9 4 -10 6 -1 6 6 1 14
-3 18 -8z m40 -21 c3 -5 2 -10 -4 -10 -5 0 -13 5 -16 10 -3 6 -2 10 4 10 5 0
13 -4 16 -10z m121 -15 c17 -16 14 -18 -10 -9 -9 3 -16 10 -16 15 0 13 9 11
26 -6z m-1 -44 c3 -5 2 -12 -3 -15 -5 -3 -9 1 -9 9 0 17 3 19 12 6z m35 -21
c0 -5 -2 -10 -4 -10 -3 0 -8 5 -11 10 -3 6 -1 10 4 10 6 0 11 -4 11 -10z m150
-57 c-8 -3 -22 -11 -30 -17 -13 -10 -13 -9 -1 7 7 9 21 17 30 16 13 0 14 -1 1
-6z m630 -317 c0 -2 -7 -7 -16 -10 -8 -3 -12 -2 -9 4 6 10 25 14 25 6z m176
-97 c3 -5 -6 -8 -19 -7 -13 1 -24 7 -24 14 0 12 34 7 43 -7z m164 -89 c0 -5
-2 -10 -4 -10 -3 0 -8 5 -11 10 -3 6 -1 10 4 10 6 0 11 -4 11 -10z m-2360
-1230 c0 -18 -7 -20 -60 -20 -33 0 -60 4 -60 8 0 20 28 32 72 32 41 0 48 -3
48 -20z m-160 -80 c0 -13 -7 -20 -20 -20 -23 0 -26 10 -8 28 18 18 28 15 28
-8z m-42 -403 c2 -12 -3 -17 -17 -17 -15 0 -21 6 -21 21 0 25 33 22 38 -4z"/>
<path d="M2741 5204 c0 -11 3 -14 6 -6 3 7 2 16 -1 19 -3 4 -6 -2 -5 -13z"/>
<path d="M4320 5212 c0 -4 9 -8 20 -8 11 0 20 4 20 8 0 4 -9 8 -20 8 -11 0
-20 -4 -20 -8z"/>
<path d="M5777 5200 c3 -11 7 -20 9 -20 2 0 4 9 4 20 0 11 -4 20 -9 20 -5 0
-7 -9 -4 -20z"/>
<path d="M6070 5204 c0 -8 5 -12 10 -9 6 4 8 11 5 16 -9 14 -15 11 -15 -7z"/>
<path d="M2480 5202 c0 -4 9 -13 20 -20 11 -7 20 -21 20 -32 0 -11 4 -20 9
-20 5 0 12 -8 14 -17 4 -14 5 -12 6 5 0 12 -3 22 -9 22 -5 0 -10 11 -10 25 0
14 -8 29 -19 35 -23 12 -31 13 -31 2z"/>
<path d="M4371 5188 c-1 -15 4 -30 9 -33 12 -7 12 12 0 40 -8 18 -9 17 -9 -7z"/>
<path d="M5747 5190 c-3 -11 -1 -20 4 -20 5 0 9 9 9 20 0 11 -2 20 -4 20 -2 0
-6 -9 -9 -20z"/>
<path d="M4407 5168 c8 -44 13 -48 13 -10 0 17 -4 34 -10 37 -6 4 -7 -6 -3
-27z"/>
<path d="M4735 5190 c3 -5 8 -10 11 -10 2 0 4 5 4 10 0 6 -5 10 -11 10 -5 0
-7 -4 -4 -10z"/>
<path d="M4074 5174 c3 -9 6 -19 6 -22 0 -9 20 21 20 31 0 4 -7 7 -16 7 -11 0
-14 -5 -10 -16z"/>
<path d="M5700 5183 c0 -5 5 -15 10 -23 8 -12 10 -11 10 8 0 12 -4 22 -10 22
-5 0 -10 -3 -10 -7z"/>
<path d="M6146 5174 c-4 -9 -4 -19 -1 -22 2 -3 7 3 11 12 4 9 4 19 1 22 -2 3
-7 -3 -11 -12z"/>
<path d="M2470 5164 c0 -12 7 -27 15 -34 23 -19 25 -9 4 25 -17 26 -19 27 -19
9z"/>
<path d="M2735 5170 c-3 -5 -1 -10 4 -10 6 0 11 5 11 10 0 6 -2 10 -4 10 -3 0
-8 -4 -11 -10z"/>
<path d="M2847 5161 c3 -11 9 -18 14 -15 5 3 9 1 9 -5 0 -5 -6 -12 -12 -14 -8
-3 -6 -6 5 -6 23 -1 22 22 -2 43 -19 17 -19 17 -14 -3z"/>
<path d="M4437 5151 c-4 -16 2 -25 23 -36 27 -14 28 -13 33 13 6 32 8 29 -24
37 -21 5 -27 2 -32 -14z m33 -12 c0 -5 -4 -9 -10 -9 -5 0 -10 7 -10 16 0 8 5
12 10 9 6 -3 10 -10 10 -16z"/>
<path d="M6076 5154 c-4 -9 -4 -19 -1 -22 2 -3 7 3 11 12 4 9 4 19 1 22 -2 3
-7 -3 -11 -12z"/>
<path d="M4142 5140 c0 -14 2 -19 5 -12 2 6 2 18 0 25 -3 6 -5 1 -5 -13z"/>
<path d="M4750 5150 c0 -5 5 -10 11 -10 5 0 7 5 4 10 -3 6 -8 10 -11 10 -2 0
-4 -4 -4 -10z"/>
<path d="M5652 5140 c0 -14 2 -19 5 -12 2 6 2 18 0 25 -3 6 -5 1 -5 -13z"/>
<path d="M5681 5144 c0 -11 3 -14 6 -6 3 7 2 16 -1 19 -3 4 -6 -2 -5 -13z"/>
<path d="M7882 5140 c0 -14 2 -19 5 -12 2 6 2 18 0 25 -3 6 -5 1 -5 -13z"/>
<path d="M2560 5125 c0 -14 2 -25 4 -25 2 0 6 11 8 25 3 14 1 25 -3 25 -5 0
-9 -11 -9 -25z"/>
<path d="M2628 5144 c-2 -5 -1 -25 2 -44 6 -35 7 -35 14 -8 7 25 -6 70 -16 52z"/>
<path d="M5600 5120 c0 -11 2 -20 4 -20 2 0 6 9 9 20 3 11 1 20 -4 20 -5 0 -9
-9 -9 -20z"/>
<path d="M2601 5118 c-1 -9 -7 -19 -13 -21 -8 -4 -7 -6 4 -6 9 -1 19 -7 21
-13 4 -9 5 -8 6 2 0 8 -4 24 -9 35 -7 16 -9 17 -9 3z"/>
<path d="M4514 5115 c-7 -16 3 -35 18 -35 5 0 7 8 4 17 -4 9 -1 20 6 25 10 6
8 8 -5 8 -10 0 -20 -7 -23 -15z"/>
<path d="M4324 5081 c1 -30 6 -46 16 -49 12 -4 13 -2 3 9 -6 8 -13 30 -16 49
-4 28 -4 26 -3 -9z"/>
<path d="M4340 5108 c0 -9 5 -20 10 -23 6 -3 10 -19 10 -36 0 -16 4 -29 9 -29
11 0 -4 79 -18 93 -8 8 -11 7 -11 -5z"/>
<path d="M5582 5100 c0 -14 2 -19 5 -12 2 6 2 18 0 25 -3 6 -5 1 -5 -13z"/>
<path d="M5897 5113 c-4 -3 -7 -13 -7 -22 1 -13 3 -13 11 2 11 19 8 33 -4 20z"/>
<path d="M7792 5100 c0 -14 2 -19 5 -12 2 6 2 18 0 25 -3 6 -5 1 -5 -13z"/>
<path d="M2377 5097 c-3 -8 3 -21 14 -30 18 -16 19 -16 19 2 0 25 -26 47 -33
28z"/>
<path d="M5552 5090 c0 -14 2 -19 5 -12 2 6 2 18 0 25 -3 6 -5 1 -5 -13z"/>
<path d="M7772 5090 c0 -14 2 -19 5 -12 2 6 2 18 0 25 -3 6 -5 1 -5 -13z"/>
<path d="M4569 5078 c8 -23 26 -25 26 -1 0 9 -8 17 -17 19 -13 1 -15 -3 -9
-18z"/>
<path d="M5512 5075 c0 -16 2 -22 5 -12 2 9 2 23 0 30 -3 6 -5 -1 -5 -18z"/>
<path d="M7720 5083 c0 -5 5 -15 10 -23 8 -12 10 -11 10 8 0 12 -4 22 -10 22
-5 0 -10 -3 -10 -7z"/>
<path d="M4617 5073 c-12 -11 -8 -31 8 -37 11 -4 15 1 15 19 0 24 -10 32 -23
18z"/>
<path d="M2449 5065 c-13 -12 3 -45 22 -45 10 0 21 -5 25 -11 5 -8 10 -6 16 5
12 22 0 36 -12 16 -8 -12 -10 -11 -11 5 0 11 -3 14 -6 8 -7 -20 -21 -15 -25 8
-2 11 -6 18 -9 14z"/>
<path d="M2695 5049 c12 -39 27 -48 23 -15 -2 16 -9 31 -17 34 -10 3 -11 -2
-6 -19z"/>
<path d="M4662 5049 c-6 -16 -6 -26 2 -31 14 -9 30 32 17 45 -7 7 -13 2 -19
-14z"/>
<path d="M5422 5040 c0 -19 2 -27 5 -17 2 9 2 25 0 35 -3 9 -5 1 -5 -18z"/>
<path d="M7702 5050 c0 -14 2 -19 5 -12 2 6 2 18 0 25 -3 6 -5 1 -5 -13z"/>
<path d="M7653 5045 c-3 -9 -3 -18 -1 -21 3 -3 8 4 11 16 6 23 -1 27 -10 5z"/>
<path d="M7941 5044 c0 -11 3 -14 6 -6 3 7 2 16 -1 19 -3 4 -6 -2 -5 -13z"/>
<path d="M2387 5039 c7 -7 15 -10 18 -7 3 3 -2 9 -12 12 -14 6 -15 5 -6 -5z"/>
<path d="M4429 5018 c4 -28 6 -29 9 -9 2 13 0 27 -5 32 -6 6 -7 -3 -4 -23z"/>
<path d="M4710 5030 c0 -11 -5 -20 -12 -20 -6 0 -3 -6 7 -14 17 -12 21 -11 30
8 7 11 10 27 7 34 -7 20 -32 14 -32 -8z"/>
<path d="M458 5033 c7 -3 16 -2 19 1 4 3 -2 6 -13 5 -11 0 -14 -3 -6 -6z"/>
<path d="M4466 5010 c8 -44 24 -63 24 -29 0 14 -7 34 -15 45 -15 18 -16 17 -9
-16z"/>
<path d="M7600 5029 c0 -5 5 -7 10 -4 6 3 10 8 10 11 0 2 -4 4 -10 4 -5 0 -10
-5 -10 -11z"/>
<path d="M7891 5014 c0 -11 3 -14 6 -6 3 7 2 16 -1 19 -3 4 -6 -2 -5 -13z"/>
<path d="M2533 5005 c-3 -9 -3 -18 -1 -21 3 -3 8 4 11 16 6 23 -1 27 -10 5z"/>
<path d="M4750 5010 c0 -6 7 -19 16 -27 14 -15 16 -14 12 7 -3 24 -28 41 -28
20z"/>
<path d="M450 5000 c0 -5 7 -10 15 -10 8 0 15 5 15 10 0 6 -7 10 -15 10 -8 0
-15 -4 -15 -10z"/>
<path d="M4520 4998 c0 -7 5 -20 10 -28 8 -12 10 -9 10 13 0 15 -4 27 -10 27
-5 0 -10 -6 -10 -12z"/>
<path d="M7852 4990 c0 -14 2 -19 5 -12 2 6 2 18 0 25 -3 6 -5 1 -5 -13z"/>
<path d="M2564 4992 c3 -6 0 -13 -6 -15 -7 -3 -2 -6 10 -6 25 -1 26 19 2 27
-7 3 -10 0 -6 -6z"/>
<path d="M4813 4993 c-15 -5 -18 -53 -4 -53 5 0 7 9 4 20 -4 14 0 20 12 20 13
0 16 -6 13 -25 -3 -14 -1 -25 3 -25 14 0 11 46 -3 57 -7 6 -19 8 -25 6z"/>
<path d="M2630 4963 c0 -13 5 -23 10 -23 13 0 13 11 0 30 -8 12 -10 11 -10 -7z"/>
<path d="M4604 4941 c1 -34 12 -32 18 4 3 16 1 25 -7 25 -7 0 -12 -12 -11 -29z"/>
<path d="M5532 4918 l1 -53 4 45 c3 24 10 48 16 52 8 5 6 8 -5 8 -15 0 -18 -8
-16 -52z"/>
<path d="M5582 4945 c0 -16 2 -22 5 -12 2 9 2 23 0 30 -3 6 -5 -1 -5 -18z"/>
<path d="M2380 4923 c0 -25 5 -43 13 -46 11 -4 12 3 7 34 -10 55 -20 60 -20
12z"/>
<path d="M4892 4930 c0 -19 2 -27 5 -17 2 9 2 25 0 35 -3 9 -5 1 -5 -18z"/>
<path d="M2831 4938 c-1 -12 6 -18 20 -18 11 0 17 5 14 10 -4 6 -10 8 -15 5
-4 -3 -11 1 -13 7 -3 8 -6 6 -6 -4z"/>
<path d="M4661 4908 c1 -31 1 -32 10 -8 7 20 8 17 4 -14 -3 -27 -1 -36 6 -29
14 14 7 75 -8 81 -9 2 -13 -7 -12 -30z"/>
<path d="M7682 4910 c0 -19 2 -27 5 -17 2 9 2 25 0 35 -3 9 -5 1 -5 -18z"/>
<path d="M2432 4888 c2 -17 8 -33 13 -35 15 -5 12 56 -3 62 -10 3 -12 -4 -10
-27z"/>
<path d="M4620 4901 c0 -5 5 -13 10 -16 6 -3 10 -2 10 4 0 5 -4 13 -10 16 -5
3 -10 2 -10 -4z"/>
<path d="M7623 4895 c-3 -9 -3 -18 -1 -21 3 -3 8 4 11 16 6 23 -1 27 -10 5z"/>
<path d="M2475 4867 c2 -28 13 -49 24 -43 12 8 0 66 -13 66 -6 0 -11 -10 -11
-23z"/>
<path d="M7881 4874 c0 -11 3 -14 6 -6 3 7 2 16 -1 19 -3 4 -6 -2 -5 -13z"/>
<path d="M858 4873 c7 -3 16 -2 19 1 4 3 -2 6 -13 5 -11 0 -14 -3 -6 -6z"/>
<path d="M4740 4871 c0 -5 7 -12 16 -15 14 -5 15 -4 4 9 -14 17 -20 19 -20 6z"/>
<path d="M6302 4855 c0 -16 2 -22 5 -12 2 9 2 23 0 30 -3 6 -5 -1 -5 -18z"/>
<path d="M7581 4864 c0 -11 3 -14 6 -6 3 7 2 16 -1 19 -3 4 -6 -2 -5 -13z"/>
<path d="M2540 4837 c0 -22 7 -36 21 -45 19 -12 20 -11 13 25 -8 44 -12 53
-25 53 -5 0 -9 -15 -9 -33z"/>
<path d="M4387 4863 c-8 -14 -4 -93 5 -99 4 -3 8 16 8 41 0 28 4 44 10 40 6
-3 10 -18 10 -33 0 -19 3 -23 11 -15 6 6 9 19 7 28 -4 20 -44 50 -51 38z"/>
<path d="M937 4843 c-14 -13 -6 -23 19 -23 23 0 24 2 10 15 -16 17 -20 18 -29
8z"/>
<path d="M2611 4808 l2 -43 7 35 7 35 2 -37 c0 -21 6 -38 12 -38 6 0 9 17 7
42 -2 31 -8 44 -20 46 -15 3 -18 -4 -17 -40z"/>
<path d="M7437 4843 c-3 -5 5 -8 18 -8 13 0 21 3 18 8 -2 4 -10 7 -18 7 -8 0
-16 -3 -18 -7z"/>
<path d="M4880 4808 c0 -19 6 -42 13 -52 12 -17 14 -13 13 29 -1 56 -26 78
-26 23z"/>
<path d="M5762 4815 c0 -16 2 -22 5 -12 2 9 2 23 0 30 -3 6 -5 -1 -5 -18z"/>
<path d="M4468 4790 c4 -44 22 -66 22 -28 0 13 5 29 12 36 13 13 11 17 -17 26
-19 5 -20 2 -17 -34z"/>
<path d="M1018 4803 c7 -3 16 -2 19 1 4 3 -2 6 -13 5 -11 0 -14 -3 -6 -6z"/>
<path d="M2678 4798 c-2 -6 -2 -24 0 -40 5 -34 45 -59 63 -41 14 14 2 68 -19
85 -14 11 -15 10 -8 -7 4 -11 10 -32 13 -48 5 -22 3 -26 -11 -21 -10 4 -16 18
-16 39 0 34 -15 56 -22 33z"/>
<path d="M4526 4763 c4 -27 11 -52 17 -58 7 -7 8 -4 3 8 -3 10 -6 36 -6 58 0
21 -4 39 -10 39 -6 0 -7 -19 -4 -47z"/>
<path d="M2380 4756 c0 -25 2 -46 4 -46 2 0 10 -2 18 -5 19 -7 11 70 -8 86
-12 10 -14 4 -14 -35z m17 -28 c-3 -8 -6 -5 -6 6 -1 11 2 17 5 13 3 -3 4 -12
1 -19z"/>
<path d="M2774 4784 c3 -9 6 -35 6 -59 0 -30 5 -45 16 -49 14 -5 15 -4 5 8 -7
8 -11 20 -10 28 5 36 -2 88 -12 88 -6 0 -8 -7 -5 -16z"/>
<path d="M4586 4732 c7 -52 14 -68 14 -33 0 12 4 19 10 16 6 -3 10 1 10 9 0 9
5 16 10 16 6 0 10 -6 9 -12 -5 -42 2 -78 16 -78 26 0 19 63 -10 90 -14 13 -25
18 -25 12 0 -7 -5 -12 -11 -12 -6 0 -9 6 -6 14 3 8 -1 17 -9 20 -13 5 -14 -2
-8 -42z m71 -49 c-3 -10 -5 -4 -5 12 0 17 2 24 5 18 2 -7 2 -21 0 -30z"/>
<path d="M2450 4706 c0 -31 5 -56 10 -56 6 0 10 20 10 45 0 25 0 48 1 52 0 4
-4 9 -10 11 -7 2 -11 -17 -11 -52z"/>
<path d="M2490 4728 c0 -13 -3 -33 -6 -45 -5 -17 -2 -23 10 -23 9 0 15 -5 14
-11 -2 -6 2 -13 7 -15 6 -2 11 18 12 46 2 41 -1 51 -17 60 -17 9 -20 8 -20
-12z"/>
<path d="M2800 4740 c0 -5 5 -10 10 -10 6 0 10 5 10 10 0 6 -4 10 -10 10 -5 0
-10 -4 -10 -10z"/>
<path d="M2845 4683 c8 -52 34 -82 49 -56 18 32 -11 103 -41 103 -12 0 -14 -9
-8 -47z m28 -10 c-3 -24 -2 -25 6 -8 9 18 10 17 10 -8 1 -40 -23 -29 -27 11
-2 18 1 32 6 32 5 0 8 -12 5 -27z"/>
<path d="M2560 4667 c0 -45 13 -67 40 -66 9 0 6 4 -7 9 -21 9 -33 40 -15 40
10 0 36 -31 45 -53 3 -9 16 -17 27 -17 19 0 20 4 14 38 -7 41 -37 75 -42 48
-2 -8 4 -26 14 -40 10 -16 12 -26 5 -26 -6 0 -11 5 -11 11 0 6 -9 24 -21 40
-11 16 -17 29 -13 29 3 0 1 7 -6 15 -21 25 -30 17 -30 -28z"/>
<path d="M4410 4619 c0 -44 19 -46 21 -1 l1 27 8 -30 c6 -25 8 -27 15 -12 5
12 1 24 -10 37 -27 30 -35 25 -35 -21z"/>
<path d="M2697 4607 c-5 -35 -3 -45 14 -59 37 -31 50 -23 48 27 -2 29 -7 45
-16 45 -7 0 -13 4 -13 9 0 5 -6 11 -14 14 -10 4 -15 -6 -19 -36z m41 -26 c3
-24 0 -32 -10 -29 -7 3 -14 19 -16 37 -3 24 0 32 10 29 7 -3 14 -19 16 -37z"/>
<path d="M4501 4602 c-2 -21 28 -71 49 -82 26 -14 26 2 0 18 -12 7 -18 17 -15
22 4 6 11 8 16 5 10 -7 13 18 3 28 -4 3 -15 2 -25 -3 -13 -8 -19 -6 -22 8 -3
9 -5 11 -6 4z"/>
<path d="M2780 4556 c0 -35 4 -45 19 -49 35 -9 45 65 12 83 -29 15 -31 14 -31
-34z m27 -28 c-3 -8 -6 -5 -6 6 -1 11 2 17 5 13 3 -3 4 -12 1 -19z"/>
<path d="M4820 4591 c0 -6 4 -12 10 -16 5 -3 7 -12 3 -20 -3 -8 0 -15 6 -15
12 0 14 20 5 44 -7 17 -24 22 -24 7z"/>
<path d="M2375 4570 c-8 -13 6 -90 16 -90 5 0 6 7 3 15 -4 8 -1 15 5 15 17 0
13 57 -4 63 -8 4 -17 2 -20 -3z"/>
<path d="M4575 4569 c-4 -6 -3 -15 3 -21 6 -6 11 -4 15 6 7 18 -9 31 -18 15z"/>
<path d="M2855 4520 c-4 -16 -3 -40 1 -52 8 -22 8 -22 15 7 l7 30 1 -27 c1
-32 26 -38 36 -9 7 22 -4 52 -24 68 -24 18 -29 16 -36 -17z m44 -19 c-2 -6
-10 2 -17 17 -11 25 -11 25 4 10 9 -9 15 -21 13 -27z"/>
<path d="M4620 4528 c0 -27 27 -64 39 -52 3 4 0 9 -6 11 -7 3 -13 14 -13 24 0
27 17 15 34 -24 l14 -32 1 33 c1 26 -4 35 -19 39 -11 3 -22 4 -26 3 -4 -1 -11
4 -15 12 -6 9 -9 5 -9 -14z"/>
<path d="M4722 4481 c2 -27 9 -46 17 -49 11 -4 12 3 7 34 -11 58 -28 68 -24
15z"/>
<path d="M2437 4493 c-11 -10 -8 -41 4 -49 7 -4 9 2 7 17 -2 16 2 23 10 21 8
-1 11 2 7 8 -7 12 -19 13 -28 3z"/>
<path d="M4765 4480 c22 -72 39 -96 28 -37 -3 17 -12 39 -20 47 -13 13 -14 12
-8 -10z"/>
<path d="M7577 4477 c-3 -8 -2 -20 3 -26 5 -9 8 -4 8 13 0 29 -3 32 -11 13z"/>
<path d="M2470 4453 c0 -11 18 -27 46 -41 39 -20 45 -20 51 -7 8 23 -15 45
-27 25 -8 -13 -10 -12 -10 3 0 10 -4 15 -10 12 -5 -3 -10 -1 -10 6 0 8 -4 8
-15 -1 -13 -11 -14 -10 -9 4 3 9 1 16 -5 16 -6 0 -11 -8 -11 -17z"/>
<path d="M4820 4460 c0 -32 13 -90 21 -90 9 0 0 68 -12 90 -7 13 -8 13 -9 0z"/>
<path d="M2576 4404 c-4 -9 -4 -19 -2 -21 8 -8 26 8 26 23 0 19 -16 18 -24 -2z"/>
<path d="M4404 4407 c-7 -19 2 -37 19 -37 8 0 7 3 -2 9 -11 7 -11 9 0 14 11 3
11 7 2 17 -10 11 -14 10 -19 -3z"/>
<path d="M2610 4386 c0 -14 5 -28 10 -31 6 -4 10 7 10 24 0 17 -4 31 -10 31
-5 0 -10 -11 -10 -24z"/>
<path d="M2640 4372 c0 -23 8 -32 46 -50 25 -12 43 -18 39 -12 -3 5 -3 16 1
22 6 9 10 5 15 -12 l7 -25 1 26 c1 16 -5 29 -15 33 -23 9 -24 8 -24 -14 0 -13
-5 -18 -15 -14 -10 4 -12 11 -6 23 7 13 3 20 -20 33 l-29 17 0 -27z m31 -11
c7 11 9 10 9 -4 0 -20 -22 -19 -26 1 -2 9 -1 9 3 1 4 -8 8 -7 14 2z"/>
<path d="M2370 4365 c0 -25 34 -49 53 -38 16 10 7 43 -13 43 -11 0 -20 5 -20
10 0 6 -4 10 -10 10 -5 0 -10 -11 -10 -25z"/>
<path d="M4450 4362 c0 -19 18 -42 32 -42 15 0 8 48 -8 54 -23 9 -24 8 -24
-12z m30 -13 c0 -5 -4 -9 -10 -9 -5 0 -10 7 -10 16 0 8 5 12 10 9 6 -3 10 -10
10 -16z"/>
<path d="M5850 4360 c0 -11 5 -20 10 -20 6 0 10 9 10 20 0 11 -4 20 -10 20 -5
0 -10 -9 -10 -20z"/>
<path d="M2450 4325 c0 -22 4 -34 10 -30 6 3 10 17 10 30 0 13 -4 27 -10 30
-6 4 -10 -8 -10 -30z"/>
<path d="M5800 4341 c0 -12 5 -21 10 -21 6 0 10 6 10 14 0 8 -4 18 -10 21 -5
3 -10 -3 -10 -14z"/>
<path d="M4510 4326 c0 -13 7 -27 16 -30 12 -4 14 -1 9 14 -4 13 -2 20 7 20
10 0 9 3 -2 10 -23 15 -30 12 -30 -14z"/>
<path d="M2480 4315 c0 -14 4 -25 9 -25 12 0 23 29 15 41 -10 18 -24 9 -24
-16z"/>
<path d="M2770 4316 c0 -13 9 -31 20 -41 20 -18 20 -17 20 17 0 27 -5 37 -20
41 -16 4 -20 0 -20 -17z m27 -28 c-3 -7 -5 -2 -5 12 0 14 2 19 5 13 2 -7 2
-19 0 -25z"/>
<path d="M4560 4321 c0 -5 -3 -16 -6 -24 -3 -8 2 -17 11 -21 10 -3 14 -2 10 5
-4 5 -2 16 4 23 9 10 8 15 -4 20 -8 3 -15 1 -15 -3z"/>
<path d="M5742 4310 c0 -14 2 -19 5 -12 2 6 2 18 0 25 -3 6 -5 1 -5 -13z"/>
<path d="M2516 4304 c-10 -26 -7 -29 10 -8 11 14 14 15 11 3 -3 -9 -1 -22 4
-30 7 -11 9 -10 9 6 0 17 2 17 10 5 9 -13 10 -13 11 0 0 8 5 1 10 -16 7 -26
42 -54 65 -54 12 0 -2 64 -15 68 -10 4 -12 -2 -8 -24 3 -16 4 -23 1 -16 -3 6
-10 9 -15 6 -6 -3 -8 6 -4 23 4 23 4 24 -4 8 -8 -16 -10 -16 -10 -4 -2 33 -64
61 -75 33z"/>
<path d="M4596 4284 c-7 -19 -8 -17 22 -33 14 -8 22 -8 22 -1 0 5 -7 10 -15
10 -8 0 -15 7 -15 16 0 8 5 12 10 9 6 -3 10 -1 10 4 0 17 -27 13 -34 -5z"/>
<path d="M5697 4281 c-3 -13 -1 -18 9 -14 7 2 10 11 7 19 -7 19 -10 18 -16 -5z"/>
<path d="M4653 4260 c7 -17 15 -26 20 -21 12 12 -1 51 -18 51 -11 0 -11 -6 -2
-30z"/>
<path d="M5644 4275 c-3 -8 -4 -20 -2 -27 3 -7 7 -1 10 15 6 29 1 36 -8 12z"/>
<path d="M4404 4256 c-7 -18 1 -33 25 -46 16 -8 18 -6 12 22 -7 35 -28 48 -37
24z m21 -5 c3 -5 1 -12 -5 -16 -5 -3 -10 1 -10 9 0 18 6 21 15 7z"/>
<path d="M4460 4226 c0 -20 5 -36 10 -36 6 0 10 13 10 29 0 17 -4 33 -10 36
-6 4 -10 -8 -10 -29z"/>
<path d="M5590 4235 c0 -14 2 -25 4 -25 2 0 6 11 8 25 3 14 1 25 -3 25 -5 0
-9 -11 -9 -25z"/>
<path d="M2680 4231 c0 -31 11 -51 34 -63 20 -11 20 -10 4 9 -10 11 -18 32
-18 46 0 15 -4 27 -10 27 -5 0 -10 -9 -10 -19z"/>
<path d="M4690 4236 c0 -8 7 -16 15 -20 10 -4 15 1 15 14 0 11 -7 20 -15 20
-8 0 -15 -6 -15 -14z"/>
<path d="M2378 4235 c-3 -4 -3 -19 1 -33 5 -15 6 -33 4 -39 -3 -7 2 -13 9 -13
8 0 13 9 13 23 -2 29 -19 69 -27 62z"/>
<path d="M4730 4221 c0 -11 5 -23 10 -26 6 -3 10 3 10 14 0 11 -4 23 -10 26
-5 3 -10 -3 -10 -14z"/>
<path d="M5552 4220 c0 -14 2 -19 5 -12 2 6 2 18 0 25 -3 6 -5 1 -5 -13z"/>
<path d="M5881 4224 c0 -11 3 -14 6 -6 3 7 2 16 -1 19 -3 4 -6 -2 -5 -13z"/>
<path d="M2722 4213 c9 -10 18 -25 21 -33 4 -10 6 -11 6 -2 1 7 6 10 11 7 18
-11 10 7 -12 26 -27 24 -46 25 -26 2z"/>
<path d="M4500 4221 c0 -5 4 -21 10 -35 12 -34 32 -34 24 -1 -5 20 -3 24 10
19 10 -4 16 -18 16 -38 0 -24 3 -27 10 -16 18 28 10 48 -24 64 -39 19 -46 19
-46 7z"/>
<path d="M4761 4208 c-1 -16 4 -28 9 -28 6 0 10 2 10 4 0 2 3 12 7 22 4 11 3
15 -4 11 -6 -4 -14 -1 -16 5 -3 7 -6 1 -6 -14z"/>
<path d="M5524 4219 c-3 -6 -1 -16 5 -22 8 -8 11 -5 11 11 0 24 -5 28 -16 11z"/>
<path d="M5822 4210 c0 -14 2 -19 5 -12 2 6 2 18 0 25 -3 6 -5 1 -5 -13z"/>
<path d="M4802 4185 c0 -16 2 -22 5 -12 2 9 2 23 0 30 -3 6 -5 -1 -5 -18z"/>
<path d="M5482 4185 c0 -16 2 -22 5 -12 2 9 2 23 0 30 -3 6 -5 -1 -5 -18z"/>
<path d="M5780 4201 c0 -5 5 -13 10 -16 6 -3 10 -2 10 4 0 5 -4 13 -10 16 -5
3 -10 2 -10 -4z"/>
<path d="M4820 4175 c0 -14 5 -25 10 -25 6 0 10 2 10 4 0 2 3 11 6 19 3 8 -2
17 -10 20 -12 5 -16 0 -16 -18z"/>
<path d="M5424 4186 c-3 -8 -4 -23 -1 -33 3 -12 5 -9 6 9 0 14 7 29 14 31 9 4
9 6 -1 6 -7 1 -15 -5 -18 -13z"/>
<path d="M2446 4153 c9 -36 14 -42 14 -15 0 12 0 25 1 29 0 4 -5 9 -11 11 -7
3 -9 -5 -4 -25z"/>
<path d="M2790 4150 c0 -32 8 -38 28 -18 17 17 15 26 -8 38 -18 10 -20 8 -20
-20z m25 0 c3 -5 1 -10 -4 -10 -6 0 -11 5 -11 10 0 6 2 10 4 10 3 0 8 -4 11
-10z"/>
<path d="M4597 4173 c-11 -10 -8 -43 3 -43 6 0 10 9 10 20 0 14 5 18 18 14 14
-5 15 -4 2 5 -18 13 -24 13 -33 4z"/>
<path d="M4882 4145 c0 -16 2 -22 5 -12 2 9 2 23 0 30 -3 6 -5 -1 -5 -18z"/>
<path d="M5684 4159 c-3 -6 -1 -16 5 -22 8 -8 11 -5 11 11 0 24 -5 28 -16 11z"/>
<path d="M4660 4120 c0 -16 5 -30 10 -30 6 0 10 14 10 30 0 17 -4 30 -10 30
-5 0 -10 -13 -10 -30z"/>
<path d="M4391 4123 c1 -10 5 -29 9 -43 7 -22 8 -21 9 12 1 20 -3 40 -9 43 -5
3 -10 -2 -9 -12z"/>
<path d="M4620 4131 c0 -6 5 -13 10 -16 6 -3 10 1 10 9 0 9 -4 16 -10 16 -5 0
-10 -4 -10 -9z"/>
<path d="M2476 4117 c3 -10 9 -15 12 -12 3 3 0 11 -7 18 -10 9 -11 8 -5 -6z"/>
<path d="M4700 4106 c0 -13 8 -30 18 -37 15 -12 16 -12 5 1 -8 10 -9 21 -3 30
14 21 12 30 -5 30 -9 0 -15 -9 -15 -24z"/>
<path d="M5626 4117 c3 -10 9 -15 12 -12 3 3 0 11 -7 18 -10 9 -11 8 -5 -6z"/>
<path d="M2500 4111 c0 -5 5 -13 10 -16 6 -3 10 -2 10 4 0 5 -4 13 -10 16 -5
3 -10 2 -10 -4z"/>
<path d="M2573 4085 c6 -39 26 -62 38 -44 3 6 9 1 12 -10 8 -30 25 -26 19 5
-5 30 -30 43 -43 23 -6 -10 -9 -4 -9 18 0 17 -5 35 -12 39 -8 5 -9 -4 -5 -31z"/>
<path d="M5580 4111 c0 -6 4 -13 10 -16 6 -3 7 1 4 9 -7 18 -14 21 -14 7z"/>
<path d="M5850 4085 c0 -19 2 -35 4 -35 2 0 6 16 8 35 2 19 0 35 -4 35 -4 0
-8 -16 -8 -35z"/>
<path d="M4740 4083 c0 -25 1 -26 16 -11 9 9 13 21 10 27 -13 20 -26 11 -26
-16z"/>
<path d="M4503 4088 c2 -7 10 -12 16 -10 6 1 11 -12 11 -31 0 -39 15 -57 48
-57 20 0 23 4 20 32 -3 33 -28 53 -28 23 0 -14 -3 -15 -15 -5 -8 7 -15 18 -15
26 0 7 -10 18 -21 25 -17 9 -20 8 -16 -3z m84 -75 c-3 -10 -5 -4 -5 12 0 17 2
24 5 18 2 -7 2 -21 0 -30z m-17 -4 c0 -14 -17 -10 -23 5 -4 10 -1 13 9 9 7 -3
14 -9 14 -14z"/>
<path d="M4805 4063 c6 -27 6 -27 -9 -9 -12 15 -16 16 -16 5 0 -16 19 -39 32
-39 12 0 10 58 -2 65 -7 4 -9 -3 -5 -22z"/>
<path d="M5522 4070 c0 -14 2 -19 5 -12 2 6 2 18 0 25 -3 6 -5 1 -5 -13z"/>
<path d="M5551 4074 c0 -11 3 -14 6 -6 3 7 2 16 -1 19 -3 4 -6 -2 -5 -13z"/>
<path d="M5482 4050 c0 -19 2 -27 5 -17 2 9 2 25 0 35 -3 9 -5 1 -5 -18z"/>
<path d="M7595 4069 c-4 -6 -5 -12 -2 -15 2 -3 7 2 10 11 7 17 1 20 -8 4z"/>
<path d="M2376 4038 c9 -50 13 -60 24 -53 14 9 13 58 -2 73 -20 20 -28 13 -22
-20z"/>
<path d="M4872 4029 c2 -18 8 -34 14 -36 7 -2 9 8 6 27 -6 42 -24 50 -20 9z"/>
<path d="M5424 4046 c-3 -8 -4 -25 -1 -38 3 -18 5 -16 6 9 1 21 7 33 19 36 16
4 16 5 -1 6 -10 0 -20 -5 -23 -13z"/>
<path d="M2670 4038 c0 -30 13 -58 26 -58 17 0 19 41 2 58 -16 16 -28 15 -28
0z"/>
<path d="M2436 4021 c-8 -12 11 -61 23 -61 5 0 7 9 4 20 -10 39 29 12 41 -28
4 -12 12 -20 17 -16 5 3 7 10 4 15 -4 5 -2 9 4 9 6 0 8 7 5 15 -4 8 -14 15
-24 15 -11 0 -22 4 -25 10 -10 17 -43 31 -49 21z"/>
<path d="M2733 4003 c-3 -10 -8 -21 -10 -25 -2 -4 6 -12 18 -18 18 -10 20 -10
11 6 -5 9 -7 25 -5 35 7 24 -6 25 -14 2z"/>
<path d="M2774 3969 c1 -28 26 -67 26 -41 0 7 -4 12 -10 12 -5 0 -7 7 -4 15 4
8 13 15 21 15 19 0 8 16 -16 23 -15 4 -18 -1 -17 -24z"/>
<path d="M5640 3996 c0 -2 8 -10 18 -17 15 -13 16 -12 3 4 -13 16 -21 21 -21
13z"/>
<path d="M7820 3965 c0 -14 2 -25 4 -25 2 0 6 11 8 25 3 14 1 25 -3 25 -5 0
-9 -11 -9 -25z"/>
<path d="M2824 3958 c-4 -7 -4 -10 1 -6 12 11 35 -11 35 -33 0 -11 7 -19 15
-19 8 0 15 7 15 16 0 8 -7 22 -15 30 -8 9 -15 12 -15 8 0 -3 -6 -1 -14 5 -11
9 -16 9 -22 -1z"/>
<path d="M5592 3950 c0 -14 2 -19 5 -12 2 6 2 18 0 25 -3 6 -5 1 -5 -13z"/>
<path d="M7772 3945 c0 -16 2 -22 5 -12 2 9 2 23 0 30 -3 6 -5 -1 -5 -18z"/>
<path d="M2570 3942 c0 -12 5 -22 11 -22 7 0 18 -8 25 -17 11 -16 13 -16 14
-2 0 8 -11 26 -25 39 l-25 23 0 -21z"/>
<path d="M7740 3919 c0 -11 4 -18 10 -14 5 3 7 12 3 20 -7 21 -13 19 -13 -6z"/>
<path d="M4412 3909 c2 -12 13 -28 26 -37 20 -13 22 -13 22 3 0 11 -5 15 -15
11 -9 -3 -15 -1 -14 7 3 24 -1 37 -12 37 -6 0 -9 -10 -7 -21z"/>
<path d="M5455 3920 c3 -5 8 -10 11 -10 2 0 4 5 4 10 0 6 -5 10 -11 10 -5 0
-7 -4 -4 -10z"/>
<path d="M7697 3910 c3 -11 7 -20 9 -20 2 0 4 9 4 20 0 11 -4 20 -9 20 -5 0
-7 -9 -4 -20z"/>
<path d="M4875 3911 c4 -8 12 -28 16 -45 l7 -31 1 31 c1 19 -6 37 -16 45 -14
12 -16 12 -8 0z"/>
<path d="M7668 3895 c-3 -14 -1 -25 3 -25 5 0 9 11 9 25 0 14 -2 25 -4 25 -2
0 -6 -11 -8 -25z"/>
<path d="M5420 3880 c0 -16 2 -30 4 -30 2 0 6 14 8 30 3 17 1 30 -4 30 -4 0
-8 -13 -8 -30z"/>
<path d="M2370 3842 c0 -51 13 -74 37 -65 12 5 12 7 -1 17 -7 6 -16 29 -20 51
l-5 40 14 -30 14 -30 1 26 c0 23 -15 39 -36 39 -2 0 -4 -22 -4 -48z"/>
<path d="M7610 3881 c0 -5 6 -13 13 -19 10 -8 13 -6 14 9 1 10 -5 19 -13 19
-8 0 -14 -4 -14 -9z"/>
<path d="M2700 3866 c0 -14 29 -31 38 -22 2 3 2 12 -1 21 -8 19 -37 20 -37 1z"/>
<path d="M4470 3861 c0 -19 52 -46 64 -34 3 4 6 2 6 -4 0 -6 14 -16 30 -23 17
-7 30 -16 30 -21 0 -5 5 -9 11 -9 6 0 8 9 4 20 -5 15 -3 18 9 14 8 -3 12 -12
9 -21 -9 -23 18 -35 33 -15 12 15 12 14 7 -5 -3 -13 -1 -23 5 -23 6 0 13 8 15
18 4 13 5 12 6 -4 0 -12 8 -25 17 -28 8 -3 12 -2 9 3 -3 5 -1 12 5 16 5 3 10
-3 10 -13 0 -11 7 -22 15 -26 10 -4 15 1 15 14 0 27 -158 109 -171 88 -7 -10
-9 -9 -9 5 0 10 -4 15 -10 12 -5 -3 -10 -1 -10 6 0 7 -3 9 -7 6 -3 -4 -12 1
-19 11 -11 14 -15 14 -22 4 -7 -11 -10 -9 -15 7 -7 26 -37 28 -37 2z"/>
<path d="M2440 3834 c0 -25 -3 -33 -12 -28 -9 5 -9 2 1 -9 7 -9 10 -17 7 -17
-4 0 -2 -9 4 -20 15 -27 34 -25 50 6 13 24 12 27 -10 45 -14 10 -20 19 -13 19
16 0 6 27 -13 34 -10 4 -14 -4 -14 -30z m40 -43 c0 -6 -4 -13 -10 -16 -5 -3
-10 1 -10 9 0 9 5 16 10 16 6 0 10 -4 10 -9z"/>
<path d="M5811 3856 c-8 -9 -11 -19 -7 -23 9 -9 29 13 24 27 -2 8 -8 7 -17 -4z"/>
<path d="M7577 3863 c-4 -3 -7 -13 -7 -22 1 -13 3 -13 11 2 11 19 8 33 -4 20z"/>
<path d="M2780 3832 c0 -15 5 -34 10 -42 8 -12 10 -11 10 7 0 12 3 28 6 36 3
8 -2 17 -10 20 -12 5 -16 0 -16 -21z"/>
<path d="M7532 3830 c0 -14 2 -19 5 -12 2 6 2 18 0 25 -3 6 -5 1 -5 -13z"/>
<path d="M2509 3835 c0 -6 0 -32 1 -59 1 -37 -1 -47 -12 -41 -7 3 -4 -1 7 -10
20 -16 20 -15 23 41 2 31 -2 62 -7 67 -7 7 -11 7 -12 2z"/>
<path d="M5747 3827 c-11 -29 -9 -43 4 -30 6 6 9 19 7 29 -3 18 -4 18 -11 1z"/>
<path d="M7812 3798 l-1 -43 13 30 c8 16 12 35 9 42 -10 26 -19 12 -21 -29z"/>
<path d="M7472 3800 c0 -19 2 -27 5 -17 2 9 2 25 0 35 -3 9 -5 1 -5 -18z"/>
<path d="M7502 3805 c0 -16 2 -22 5 -12 2 9 2 23 0 30 -3 6 -5 -1 -5 -18z"/>
<path d="M7758 3776 c-2 -36 1 -52 8 -49 12 4 15 103 3 103 -4 0 -9 -24 -11
-54z"/>
<path d="M2840 3792 c0 -30 16 -52 37 -52 16 0 17 52 1 68 -21 21 -38 14 -38
-16z m40 -18 c0 -8 -4 -14 -10 -14 -5 0 -10 9 -10 21 0 11 5 17 10 14 6 -3 10
-13 10 -21z"/>
<path d="M5691 3793 c0 -25 1 -26 9 -8 12 27 12 35 0 35 -5 0 -10 -12 -9 -27z"/>
<path d="M2550 3761 c0 -28 0 -54 1 -58 0 -5 10 -12 22 -16 18 -7 20 -6 10 4
-20 20 -15 39 8 39 11 0 18 -4 14 -9 -3 -5 -1 -12 5 -16 5 -3 10 -11 10 -16 0
-6 -4 -7 -10 -4 -5 3 -10 2 -10 -3 0 -5 26 -23 58 -39 l58 -30 -1 65 c0 43 -4
67 -12 69 -8 3 -13 -4 -13 -16 0 -29 -18 -26 -26 4 -11 44 -21 27 -16 -26 3
-37 2 -50 -7 -45 -6 4 -11 28 -11 54 0 47 -12 61 -72 90 -5 2 -8 -19 -8 -47z
m50 -12 c0 -5 -4 -9 -10 -9 -5 0 -10 7 -10 16 0 8 5 12 10 9 6 -3 10 -10 10
-16z m83 -68 c2 -10 1 -25 -4 -32 -6 -10 -9 -4 -9 19 0 36 5 42 13 13z"/>
<path d="M7710 3801 c0 -5 5 -13 10 -16 6 -3 10 -2 10 4 0 5 -4 13 -10 16 -5
3 -10 2 -10 -4z"/>
<path d="M5647 3794 c-4 -4 -7 -14 -7 -23 0 -11 3 -12 11 -4 6 6 10 16 7 23
-2 6 -7 8 -11 4z"/>
<path d="M4410 3740 c0 -43 0 -43 24 -34 22 9 20 47 -4 62 -19 11 -20 10 -20
-28z"/>
<path d="M4485 3733 c9 -36 11 -38 28 -22 11 11 11 16 -2 31 -23 26 -34 22
-26 -9z"/>
<path d="M5592 3740 c0 -14 2 -19 5 -12 2 6 2 18 0 25 -3 6 -5 1 -5 -13z"/>
<path d="M4780 3716 c0 -14 5 -28 10 -31 6 -3 10 5 10 19 0 14 -4 28 -10 31
-6 3 -10 -5 -10 -19z"/>
<path d="M5532 3720 c0 -14 2 -19 5 -12 2 6 2 18 0 25 -3 6 -5 1 -5 -13z"/>
<path d="M2738 3665 c-2 -45 1 -66 10 -70 9 -3 12 14 12 65 0 88 -17 92 -22 5z"/>
<path d="M4537 3713 c-10 -10 -8 -33 2 -33 5 0 11 6 14 13 2 6 3 4 2 -5 -4
-23 15 -35 25 -17 17 26 -22 64 -43 42z"/>
<path d="M5425 3710 c-3 -5 -1 -10 4 -10 6 0 11 5 11 10 0 6 -2 10 -4 10 -3 0
-8 -4 -11 -10z"/>
<path d="M5772 3695 c0 -16 2 -22 5 -12 2 9 2 23 0 30 -3 6 -5 -1 -5 -18z"/>
<path d="M4831 3683 c0 -25 1 -26 9 -8 12 27 12 35 0 35 -5 0 -10 -12 -9 -27z"/>
<path d="M5501 3694 c0 -11 3 -14 6 -6 3 7 2 16 -1 19 -3 4 -6 -2 -5 -13z"/>
<path d="M7542 3685 c0 -16 2 -22 5 -12 2 9 2 23 0 30 -3 6 -5 -1 -5 -18z"/>
<path d="M7591 3694 c0 -11 3 -14 6 -6 3 7 2 16 -1 19 -3 4 -6 -2 -5 -13z"/>
<path d="M2778 3634 c-1 -36 0 -68 5 -71 4 -2 7 3 7 11 0 9 9 16 20 16 12 0
20 7 21 18 1 11 4 9 9 -8 l8 -25 1 25 c0 24 -19 60 -33 60 -4 0 -4 -10 -1 -22
5 -16 4 -20 -3 -13 -17 16 -19 50 -3 47 12 -3 12 0 1 12 -22 28 -28 18 -32
-50z"/>
<path d="M5471 3684 c0 -11 3 -14 6 -6 3 7 2 16 -1 19 -3 4 -6 -2 -5 -13z"/>
<path d="M4600 3671 c0 -16 23 -51 35 -51 1 0 2 15 0 33 -3 36 -35 54 -35 18z"/>
<path d="M5427 3676 c-4 -10 -5 -21 -2 -24 9 -9 17 6 13 25 -3 17 -4 17 -11
-1z"/>
<path d="M5720 3665 c0 -14 2 -25 4 -25 2 0 6 11 8 25 3 14 1 25 -3 25 -5 0
-9 -11 -9 -25z"/>
<path d="M7491 3653 c1 -21 3 -30 6 -20 2 9 9 15 14 12 5 -4 9 -1 9 4 0 6 -5
11 -11 11 -6 0 -9 7 -5 15 3 8 1 15 -4 15 -6 0 -9 -17 -9 -37z"/>
<path d="M4660 3641 c0 -20 6 -30 20 -34 15 -4 20 0 20 17 0 11 -9 27 -20 34
-18 11 -20 10 -20 -17z"/>
<path d="M5642 3648 c-7 -7 -12 -19 -12 -27 0 -11 5 -8 16 7 18 25 15 39 -4
20z"/>
<path d="M2383 3620 c2 -19 10 -36 16 -38 8 -3 10 5 5 25 -10 43 -25 53 -21
13z"/>
<path d="M4722 3609 c1 -12 9 -24 16 -27 9 -3 13 3 10 19 -1 12 -9 24 -16 27
-9 3 -13 -3 -10 -19z"/>
<path d="M5580 3615 c0 -8 5 -15 10 -15 6 0 10 7 10 15 0 8 -4 15 -10 15 -5 0
-10 -7 -10 -15z"/>
<path d="M2435 3601 c-3 -11 -2 -29 4 -39 11 -20 51 -37 51 -21 0 5 4 9 9 9 5
0 7 -8 4 -19 -3 -10 0 -22 6 -25 6 -4 11 0 11 8 0 9 5 16 10 16 6 0 10 -9 10
-20 0 -14 7 -20 21 -20 11 0 18 -4 15 -8 -4 -7 4 -10 59 -15 14 -1 25 -6 25
-10 0 -13 27 -37 34 -30 3 4 6 0 6 -7 0 -7 3 -10 7 -7 3 4 13 1 22 -6 23 -19
94 -49 86 -37 -11 19 6 10 31 -15 14 -14 31 -25 39 -25 21 0 19 46 -2 68 -20
19 -68 18 -57 -1 4 -7 3 -8 -2 -4 -5 5 -10 13 -10 18 -1 5 -2 14 -3 19 0 6 -8
10 -16 10 -15 0 -19 -11 -16 -39 2 -7 -2 -10 -8 -6 -6 3 -11 18 -11 33 -1 23
-9 31 -55 52 -30 14 -55 28 -55 31 0 4 -7 10 -16 13 -13 5 -15 1 -12 -23 2
-17 1 -28 -4 -25 -4 3 -8 16 -8 29 0 34 -18 40 -23 8 -4 -25 -4 -25 -7 7 l-2
35 -8 -30 -8 -30 -1 27 c-1 21 -7 29 -26 34 -14 3 -25 10 -25 15 0 5 -7 9 -15
9 -8 0 -15 -5 -15 -11 0 -5 -4 -7 -10 -4 -5 3 -10 15 -10 25 0 27 -17 34 -25
11z m283 -154 c2 -12 -1 -15 -12 -11 -19 7 -22 38 -3 32 6 -3 13 -12 15 -21z
m155 -88 c-9 -9 -12 -7 -10 9 1 14 5 18 11 12 7 -7 6 -14 -1 -21z"/>
<path d="M2887 3613 c-4 -3 -7 -25 -6 -47 0 -31 2 -36 8 -21 8 19 9 18 13 -5
4 -18 6 -13 6 15 2 41 -9 71 -21 58z"/>
<path d="M4778 3585 c19 -41 31 -46 24 -10 -2 14 -12 30 -22 35 -16 9 -16 7
-2 -25z"/>
<path d="M7490 3600 c0 -5 7 -7 15 -4 8 4 15 8 15 10 0 2 -7 4 -15 4 -8 0 -15
-4 -15 -10z"/>
<path d="M7327 3579 c4 -16 8 -17 14 -7 13 19 11 28 -5 28 -9 0 -12 -7 -9 -21z"/>
<path d="M4831 3578 c1 -7 5 -24 9 -38 8 -24 8 -24 9 7 1 17 -3 35 -9 38 -5 3
-10 0 -9 -7z"/>
<path d="M4881 3585 c0 -5 8 -26 19 -45 11 -19 19 -30 19 -25 0 6 -8 26 -19
45 -11 19 -19 31 -19 25z"/>
<path d="M2852 3568 c-17 -17 -15 -45 4 -52 25 -10 29 -7 10 7 -15 11 -17 17
-7 35 13 25 11 28 -7 10z"/>
<path d="M7282 3550 c0 -14 2 -19 5 -12 2 6 2 18 0 25 -3 6 -5 1 -5 -13z"/>
<path d="M4408 3511 c-2 -28 0 -37 9 -34 8 3 11 15 7 32 -5 25 -5 25 10 7 14
-17 16 -17 16 -3 0 9 -9 21 -19 26 -17 9 -19 6 -23 -28z"/>
<path d="M5421 3524 c0 -11 3 -14 6 -6 3 7 2 16 -1 19 -3 4 -6 -2 -5 -13z"/>
<path d="M5850 3525 c-7 -9 -10 -18 -7 -22 4 -3 9 2 13 11 3 9 11 13 17 9 6
-3 7 -1 3 5 -9 15 -11 15 -26 -3z"/>
<path d="M7235 3530 c3 -5 8 -10 11 -10 2 0 4 5 4 10 0 6 -5 10 -11 10 -5 0
-7 -4 -4 -10z"/>
<path d="M4500 3498 c0 -15 5 -30 10 -33 13 -8 13 25 0 45 -8 12 -10 9 -10
-12z"/>
<path d="M7151 3504 c0 -11 3 -14 6 -6 3 7 2 16 -1 19 -3 4 -6 -2 -5 -13z"/>
<path d="M2388 3503 c-13 -3 -17 -15 -16 -48 1 -61 17 -82 19 -25 1 25 4 35 6
22 4 -19 7 -21 19 -11 19 15 18 35 -2 43 -8 3 -12 10 -9 16 3 5 5 9 3 9 -2 -1
-11 -3 -20 -6z"/>
<path d="M5786 3494 c-4 -9 -4 -19 -1 -22 2 -3 7 3 11 12 4 9 4 19 1 22 -2 3
-7 -3 -11 -12z"/>
<path d="M5811 3494 c0 -11 3 -14 6 -6 3 7 2 16 -1 19 -3 4 -6 -2 -5 -13z"/>
<path d="M5732 3465 c0 -16 2 -22 5 -12 2 9 2 23 0 30 -3 6 -5 -1 -5 -18z"/>
<path d="M7080 3443 c0 -43 5 -41 13 5 4 18 2 32 -3 32 -6 0 -10 -16 -10 -37z"/>
<path d="M7218 3473 c-10 -2 -18 -9 -18 -14 0 -13 12 -11 34 6 20 15 16 17
-16 8z"/>
<path d="M2448 3465 c-11 -11 8 -80 22 -80 8 -1 25 -7 38 -13 30 -17 45 -7 31
19 -8 15 -7 25 2 37 11 14 11 15 -1 5 -17 -15 -34 -17 -25 -3 3 6 -1 7 -9 4
-18 -7 -21 -20 -6 -29 6 -3 10 -12 9 -18 0 -9 -2 -9 -6 1 -2 6 -11 12 -19 12
-9 0 -14 11 -14 29 0 28 -11 46 -22 36z"/>
<path d="M5692 3445 c0 -16 2 -22 5 -12 2 9 2 23 0 30 -3 6 -5 -1 -5 -18z"/>
<path d="M2975 3450 c-3 -5 0 -10 9 -10 8 0 17 -6 19 -12 4 -8 6 -9 6 -2 1 18
-26 37 -34 24z"/>
<path d="M3860 3420 c0 -22 3 -40 8 -40 4 0 7 18 7 40 1 22 -3 40 -7 40 -4 0
-8 -18 -8 -40z"/>
<path d="M5650 3435 c0 -8 4 -15 10 -15 5 0 7 7 4 15 -4 8 -8 15 -10 15 -2 0
-4 -7 -4 -15z"/>
<path d="M7025 3441 c-3 -5 -1 -12 5 -16 5 -3 10 1 10 9 0 18 -6 21 -15 7z"/>
<path d="M5620 3425 c0 -5 5 -17 10 -25 5 -8 10 -10 10 -5 0 6 -5 17 -10 25
-5 8 -10 11 -10 5z"/>
<path d="M5580 3410 c0 -8 5 -22 10 -30 9 -13 10 -13 10 0 0 8 -5 22 -10 30
-9 13 -10 13 -10 0z"/>
<path d="M5842 3400 c0 -14 2 -19 5 -12 2 6 2 18 0 25 -3 6 -5 1 -5 -13z"/>
<path d="M2557 3385 c-7 -37 14 -71 42 -67 15 2 21 0 17 -7 -5 -8 1 -8 19 -1
33 12 35 12 35 -1 0 -5 -6 -7 -12 -3 -10 5 -10 4 -2 -5 6 -6 21 -14 34 -16 25
-5 42 -24 33 -38 -3 -5 4 -3 16 5 22 13 30 68 11 68 -5 0 -10 -9 -10 -20 0
-40 -27 -19 -34 26 -3 21 -21 30 -31 15 -3 -6 -12 -11 -18 -11 -8 0 -8 3 1 9
10 6 10 10 -3 21 -12 10 -15 10 -16 -1 0 -8 -4 -4 -9 9 -13 32 -30 27 -30 -8
0 -16 -4 -30 -10 -30 -13 0 -13 53 0 66 6 6 3 10 -9 11 -13 1 -20 -6 -24 -22z"/>
<path d="M3220 3390 c0 -11 5 -20 10 -20 6 0 10 9 10 20 0 11 -4 20 -10 20 -5
0 -10 -9 -10 -20z"/>
<path d="M4881 3398 c0 -7 4 -22 9 -33 7 -17 9 -15 9 13 1 17 -3 32 -9 32 -5
0 -10 -6 -9 -12z"/>
<path d="M5540 3386 c0 -8 4 -17 9 -20 5 -4 7 3 4 14 -6 23 -13 26 -13 6z"/>
<path d="M5486 3372 c-3 -5 1 -9 9 -9 8 0 15 4 15 9 0 4 -4 8 -9 8 -6 0 -12
-4 -15 -8z"/>
<path d="M5775 3370 c3 -5 8 -10 11 -10 2 0 4 5 4 10 0 6 -5 10 -11 10 -5 0
-7 -4 -4 -10z"/>
<path d="M5831 3354 c0 -11 3 -14 6 -6 3 7 2 16 -1 19 -3 4 -6 -2 -5 -13z"/>
<path d="M2920 3351 c0 -5 -3 -16 -6 -25 -4 -11 -1 -16 10 -16 9 0 16 4 16 9
0 5 3 16 6 25 4 11 1 16 -10 16 -9 0 -16 -4 -16 -9z"/>
<path d="M5424 3346 c-3 -8 -4 -23 -1 -33 3 -12 5 -9 6 9 0 14 7 29 14 31 9 4
9 6 -1 6 -7 1 -15 -5 -18 -13z"/>
<path d="M5740 3325 c0 -14 4 -25 9 -25 4 0 6 11 3 25 -2 14 -6 25 -8 25 -2 0
-4 -11 -4 -25z"/>
<path d="M2950 3321 c-7 -13 -7 -22 0 -26 5 -3 10 0 10 7 0 8 5 6 11 -4 5 -10
14 -18 18 -18 15 0 22 32 10 46 -16 20 -37 17 -49 -5z"/>
<path d="M2715 3320 c3 -5 8 -10 11 -10 2 0 4 5 4 10 0 6 -5 10 -11 10 -5 0
-7 -4 -4 -10z"/>
<path d="M3026 3307 c-17 -13 -20 -49 -3 -47 4 0 20 -6 37 -15 38 -20 40 -19
40 10 0 26 -15 34 -23 13 -2 -7 -3 -5 -2 4 2 10 -1 21 -6 24 -5 3 -10 -5 -10
-18 -1 -16 -3 -13 -8 10 -5 30 -8 32 -25 19z"/>
<path d="M4240 3309 c0 -5 9 -9 20 -9 20 0 26 -13 33 -75 3 -24 4 -22 6 11 0
22 6 45 12 51 7 7 -2 13 -30 21 -23 5 -41 6 -41 1z"/>
<path d="M4504 3304 c3 -9 6 -22 6 -30 0 -28 17 -13 18 16 0 21 -4 30 -15 30
-10 0 -13 -6 -9 -16z"/>
<path d="M2786 3295 c4 -8 1 -21 -4 -28 -7 -8 -7 -18 -2 -27 5 -8 7 -17 5 -20
-2 -4 6 -6 18 -5 17 1 23 10 28 38 3 20 3 35 0 34 -3 -1 -16 4 -28 11 -19 11
-22 10 -17 -3z"/>
<path d="M5640 3301 c0 -6 4 -12 8 -15 5 -3 9 1 9 9 0 8 -4 15 -9 15 -4 0 -8
-4 -8 -9z"/>
<path d="M4562 3269 c1 -12 9 -24 16 -27 9 -3 13 3 10 19 -1 12 -9 24 -16 27
-9 3 -13 -3 -10 -19z"/>
<path d="M4884 3274 c3 -8 6 -18 6 -20 0 -2 5 -4 10 -4 16 0 11 27 -6 34 -12
5 -15 2 -10 -10z"/>
<path d="M5592 3260 c0 -19 2 -27 5 -17 2 9 2 25 0 35 -3 9 -5 1 -5 -18z"/>
<path d="M2847 3267 c-8 -22 4 -67 19 -67 21 0 36 36 20 49 -7 6 -17 7 -21 3
-5 -4 -5 -2 -1 5 3 6 2 14 -3 17 -5 3 -11 0 -14 -7z m20 -49 c-3 -8 -6 -5 -6
6 -1 11 2 17 5 13 3 -3 4 -12 1 -19z"/>
<path d="M3120 3237 c0 -22 4 -28 15 -23 8 3 15 0 15 -6 0 -7 5 -6 15 2 8 7
15 17 15 22 0 6 -7 8 -15 4 -13 -5 -19 4 -17 25 1 3 -6 6 -14 6 -9 0 -14 -11
-14 -30z"/>
<path d="M4636 3263 c-11 -11 -6 -59 6 -71 15 -15 38 -16 38 -2 0 6 -5 9 -11
8 -7 -2 -15 9 -20 25 -4 15 -4 27 1 27 4 0 10 -10 13 -22 4 -12 8 -20 11 -17
3 3 3 14 0 26 -6 22 -27 36 -38 26z"/>
<path d="M5542 3245 c0 -16 2 -22 5 -12 2 9 2 23 0 30 -3 6 -5 -1 -5 -18z"/>
<path d="M5496 3220 c8 -43 14 -51 14 -19 0 13 -5 31 -10 39 -7 11 -8 5 -4
-20z"/>
<path d="M5457 3209 c4 -13 8 -18 11 -10 2 7 -1 18 -6 23 -8 8 -9 4 -5 -13z"/>
<path d="M2920 3203 c0 -26 12 -40 41 -51 22 -9 25 -8 24 9 -2 23 -22 46 -32
35 -4 -4 -1 -11 7 -16 13 -8 12 -10 -2 -10 -13 0 -18 8 -18 25 0 14 -4 25 -10
25 -5 0 -10 -8 -10 -17z"/>
<path d="M3176 3211 c-4 -5 -3 -17 0 -26 5 -13 8 -14 15 -3 6 9 9 10 9 1 0
-10 168 -103 186 -103 3 0 4 12 2 28 -2 16 -9 27 -18 27 -8 0 -18 4 -21 8 -3
5 -15 10 -25 11 -10 2 -18 10 -18 19 1 9 -4 13 -11 10 -8 -2 -24 1 -37 8 -13
7 -26 12 -30 11 -5 -1 -8 3 -8 8 0 12 -37 13 -44 1z m89 -51 c3 -5 1 -10 -4
-10 -6 0 -11 5 -11 10 0 6 2 10 4 10 3 0 8 -4 11 -10z"/>
<path d="M5422 3180 c0 -19 2 -27 5 -17 2 9 2 25 0 35 -3 9 -5 1 -5 -18z"/>
<path d="M4441 3168 c-1 -21 4 -38 9 -38 6 0 10 6 10 14 0 8 3 22 7 32 4 11 3
15 -4 11 -6 -4 -14 -1 -16 5 -3 7 -6 -4 -6 -24z"/>
<path d="M4750 3196 c0 -9 32 -36 43 -36 6 0 1 9 -11 20 -20 19 -32 25 -32 16z"/>
<path d="M4370 3178 c0 -9 5 -20 10 -23 13 -8 13 5 0 25 -8 13 -10 13 -10 -2z"/>
<path d="M3000 3166 c0 -27 22 -75 37 -80 23 -9 31 4 10 15 -10 6 -17 22 -17
38 0 16 -7 31 -15 35 -9 3 -15 0 -15 -8z"/>
<path d="M3040 3152 c0 -4 7 -16 15 -26 8 -11 15 -28 15 -38 0 -10 4 -18 8
-18 30 0 16 69 -16 81 -12 5 -22 5 -22 1z"/>
<path d="M3715 3150 c3 -5 11 -10 16 -10 6 0 7 5 4 10 -3 6 -11 10 -16 10 -6
0 -7 -4 -4 -10z"/>
<path d="M4484 3145 c-3 -8 -3 -19 1 -25 11 -18 25 -11 25 15 0 27 -17 34 -26
10z"/>
<path d="M4870 3154 c0 -14 27 -50 33 -44 3 3 -3 16 -13 30 -11 14 -20 20 -20
14z"/>
<path d="M6602 3135 c0 -16 2 -22 5 -12 2 9 2 23 0 30 -3 6 -5 -1 -5 -18z"/>
<path d="M3119 3134 c-18 -21 -3 -63 22 -61 32 2 39 29 13 54 -19 18 -25 19
-35 7z m39 -39 c-3 -3 -9 2 -12 12 -6 14 -5 15 5 6 7 -7 10 -15 7 -18z"/>
<path d="M3790 3130 c0 -11 0 -23 -1 -27 -1 -11 14 -14 29 -5 15 10 7 38 -14
46 -9 3 -14 -1 -14 -14z"/>
<path d="M4520 3126 c0 -21 10 -31 50 -51 28 -14 50 -22 50 -18 0 5 5 1 10 -7
8 -12 10 -9 10 12 0 29 -15 46 -23 26 -3 -7 -6 -3 -6 10 -1 12 -7 22 -15 22
-8 0 -16 -10 -19 -22 -3 -22 -4 -22 -11 -3 -21 56 -46 73 -46 31z m77 -48 c-3
-8 -6 -5 -6 6 -1 11 2 17 5 13 3 -3 4 -12 1 -19z"/>
<path d="M3429 3115 c-11 -58 12 -108 38 -80 9 9 8 18 -2 38 -7 14 -10 29 -7
33 4 4 2 4 -5 1 -6 -4 -14 -1 -16 5 -3 7 -6 9 -8 3z m31 -55 c0 -5 -5 -10 -11
-10 -5 0 -7 5 -4 10 3 6 8 10 11 10 2 0 4 -4 4 -10z"/>
<path d="M3400 3095 c0 -8 2 -15 4 -15 2 0 6 7 10 15 3 8 1 15 -4 15 -6 0 -10
-7 -10 -15z"/>
<path d="M3869 3108 c-6 -21 -5 -39 2 -44 5 -3 9 6 9 20 0 21 -7 36 -11 24z"/>
<path d="M3187 3093 c-11 -10 -8 -63 3 -63 6 0 10 16 8 35 -2 39 -2 38 -11 28z"/>
<path d="M3890 3088 c0 -10 5 -18 10 -18 6 0 16 -11 22 -25 14 -31 33 -27 33
6 0 18 -6 25 -25 28 -14 1 -28 8 -32 15 -5 7 -8 5 -8 -6z m54 -34 c3 -8 2 -12
-4 -9 -6 3 -10 10 -10 16 0 14 7 11 14 -7z"/>
<path d="M5586 3085 c4 -8 8 -15 10 -15 2 0 4 7 4 15 0 8 -4 15 -10 15 -5 0
-7 -7 -4 -15z"/>
<path d="M4360 3061 c0 -17 5 -33 10 -36 6 -4 10 8 10 29 0 20 -4 36 -10 36
-5 0 -10 -13 -10 -29z"/>
<path d="M4405 3049 c5 -22 4 -29 -4 -25 -6 4 -11 2 -11 -3 0 -21 28 -11 34
12 9 36 7 47 -10 47 -12 0 -14 -7 -9 -31z"/>
<path d="M4670 3050 c0 -19 5 -30 14 -30 18 0 27 35 13 49 -18 18 -27 12 -27
-19z"/>
<path d="M5550 3043 c-3 -23 -2 -39 3 -34 5 5 7 24 5 42 -3 33 -4 33 -8 -8z"/>
<path d="M3345 3060 c-3 -5 -1 -10 4 -10 6 0 11 5 11 10 0 6 -2 10 -4 10 -3 0
-8 -4 -11 -10z"/>
<path d="M4115 2995 c0 -35 3 -61 8 -58 4 2 7 13 7 23 0 32 12 50 34 51 18 1
17 2 -7 13 -16 7 -32 18 -35 23 -4 6 -7 -17 -7 -52z"/>
<path d="M4651 3044 c0 -11 3 -14 6 -6 3 7 2 16 -1 19 -3 4 -6 -2 -5 -13z"/>
<path d="M5431 3003 c1 -53 6 -49 11 10 2 20 0 37 -4 37 -4 0 -8 -21 -7 -47z"/>
<path d="M6443 3035 c-3 -9 -3 -18 -1 -21 3 -3 8 4 11 16 6 23 -1 27 -10 5z"/>
<path d="M3240 3024 c0 -9 -6 -14 -13 -11 -8 3 -14 -1 -14 -9 0 -7 5 -10 10
-7 5 3 19 7 31 8 35 4 36 4 30 20 -8 20 -44 19 -44 -1z m30 -4 c0 -5 -4 -10
-10 -10 -5 0 -10 5 -10 10 0 6 5 10 10 10 6 0 10 -4 10 -10z"/>
<path d="M4462 3010 c1 -16 6 -30 10 -30 4 0 8 14 8 30 0 17 -5 30 -10 30 -6
0 -9 -13 -8 -30z"/>
<path d="M4720 3025 c0 -22 37 -38 44 -19 9 24 7 27 -9 14 -13 -11 -14 -10 -9
4 4 11 1 16 -10 16 -9 0 -16 -7 -16 -15z"/>
<path d="M4781 3008 c-1 -15 4 -30 9 -33 12 -7 12 12 0 40 -8 18 -9 17 -9 -7z"/>
<path d="M3343 2993 c2 -16 11 -29 20 -31 14 -3 14 1 4 27 -14 38 -29 40 -24
4z"/>
<path d="M4520 2985 c0 -19 4 -35 9 -35 5 0 7 9 4 20 -3 11 0 20 6 20 16 0 13
17 -4 24 -12 4 -15 -3 -15 -29z"/>
<path d="M4809 3006 c6 -7 9 -21 5 -30 -9 -23 3 -20 17 5 9 17 8 23 -2 30 -21
13 -33 11 -20 -5z"/>
<path d="M6390 2999 c0 -11 5 -17 10 -14 6 3 10 13 10 21 0 8 -4 14 -10 14 -5
0 -10 -9 -10 -21z"/>
<path d="M4020 2999 c0 -5 5 -7 10 -4 6 3 10 8 10 11 0 2 -4 4 -10 4 -5 0 -10
-5 -10 -11z"/>
<path d="M4055 2990 c3 -5 8 -10 11 -10 2 0 4 5 4 10 0 6 -5 10 -11 10 -5 0
-7 -4 -4 -10z"/>
<path d="M4570 2960 c0 -18 4 -29 10 -25 6 3 10 15 10 25 0 10 -4 22 -10 25
-6 4 -10 -7 -10 -25z"/>
<path d="M4860 2967 c0 -25 17 -47 37 -47 20 0 15 48 -6 60 -28 14 -31 13 -31
-13z m37 -19 c-3 -8 -6 -5 -6 6 -1 11 2 17 5 13 3 -3 4 -12 1 -19z"/>
<path d="M3240 2976 c0 -2 7 -7 16 -10 8 -3 12 -2 9 4 -6 10 -25 14 -25 6z"/>
<path d="M4038 2963 c7 -3 16 -2 19 1 4 3 -2 6 -13 5 -11 0 -14 -3 -6 -6z"/>
<path d="M5643 2930 c0 -25 2 -35 4 -22 2 12 2 32 0 45 -2 12 -4 2 -4 -23z"/>
<path d="M5688 2940 c-5 -35 7 -41 16 -7 8 30 7 37 -3 37 -5 0 -11 -13 -13
-30z"/>
<path d="M5751 2954 c0 -11 3 -14 6 -6 3 7 2 16 -1 19 -3 4 -6 -2 -5 -13z"/>
<path d="M4285 2928 c-8 -41 -2 -68 15 -68 12 0 12 56 0 85 -6 17 -9 14 -15
-17z"/>
<path d="M4320 2926 c0 -50 12 -84 35 -94 22 -10 23 -8 30 34 7 50 2 64 -26
64 -10 0 -19 5 -19 10 0 6 -4 10 -10 10 -5 0 -10 -11 -10 -24z m50 -67 c0 -20
-15 -26 -25 -9 -9 15 3 43 15 35 5 -3 10 -15 10 -26z"/>
<path d="M4620 2934 c0 -8 5 -12 10 -9 6 4 8 11 5 16 -9 14 -15 11 -15 -7z"/>
<path d="M6661 2924 c0 -11 3 -14 6 -6 3 7 2 16 -1 19 -3 4 -6 -2 -5 -13z"/>
<path d="M4650 2915 c0 -8 7 -15 15 -15 9 0 12 6 9 15 -4 8 -10 15 -15 15 -5
0 -9 -7 -9 -15z"/>
<path d="M4718 2924 c-14 -14 -8 -62 8 -68 35 -13 45 -7 42 26 -2 17 -8 33
-15 35 -9 3 -10 -4 -3 -26 7 -24 5 -31 -5 -31 -9 0 -15 14 -17 36 -2 20 -6 32
-10 28z"/>
<path d="M6462 2895 c0 -16 2 -22 5 -12 2 9 2 23 0 30 -3 6 -5 -1 -5 -18z"/>
<path d="M5591 2894 c0 -11 3 -14 6 -6 3 7 2 16 -1 19 -3 4 -6 -2 -5 -13z"/>
<path d="M4408 2878 c-7 -45 3 -69 26 -66 28 4 35 56 10 75 -25 18 -32 16 -36
-9z m32 -33 c0 -14 -4 -25 -10 -25 -11 0 -14 33 -3 43 11 11 13 8 13 -18z"/>
<path d="M4796 2893 c-3 -3 -6 -21 -6 -39 0 -32 14 -45 48 -43 13 0 12 3 -5
11 -26 13 -38 48 -16 48 8 0 17 -9 20 -19 3 -12 11 -17 19 -14 12 5 12 9 -3
25 -22 25 -48 39 -57 31z"/>
<path d="M6432 2875 c0 -16 2 -22 5 -12 2 9 2 23 0 30 -3 6 -5 -1 -5 -18z"/>
<path d="M6072 2870 c0 -14 2 -19 5 -12 2 6 2 18 0 25 -3 6 -5 1 -5 -13z"/>
<path d="M7768 2883 c7 -3 16 -2 19 1 4 3 -2 6 -13 5 -11 0 -14 -3 -6 -6z"/>
<path d="M6392 2850 c0 -19 2 -27 5 -17 2 9 2 25 0 35 -3 9 -5 1 -5 -18z"/>
<path d="M5521 2854 c0 -11 3 -14 6 -6 3 7 2 16 -1 19 -3 4 -6 -2 -5 -13z"/>
<path d="M4510 2834 c0 -9 9 -18 21 -21 18 -5 20 -11 14 -39 -4 -24 -2 -34 7
-34 7 0 23 -3 36 -6 22 -6 23 -4 20 36 -2 26 -9 45 -17 48 -11 4 -13 -4 -8
-37 3 -23 1 -39 -4 -35 -5 3 -9 18 -9 33 0 30 -16 55 -42 64 -12 4 -18 1 -18
-9z"/>
<path d="M6342 2820 c0 -14 2 -19 5 -12 2 6 2 18 0 25 -3 6 -5 1 -5 -13z"/>
<path d="M6712 2820 c0 -14 2 -19 5 -12 2 6 2 18 0 25 -3 6 -5 1 -5 -13z"/>
<path d="M6297 2801 c-4 -17 -3 -21 5 -13 5 5 8 16 6 23 -3 8 -7 3 -11 -10z"/>
<path d="M5892 2790 c0 -14 2 -19 5 -12 2 6 2 18 0 25 -3 6 -5 1 -5 -13z"/>
<path d="M4638 2782 c-8 -33 -3 -85 10 -89 8 -3 12 7 12 30 0 20 3 42 6 50 3
8 -1 17 -9 20 -9 3 -17 -1 -19 -11z"/>
<path d="M6241 2769 c-6 -18 -11 -36 -11 -40 0 -17 19 -9 31 12 9 17 8 20 -1
14 -10 -6 -11 -1 -6 19 9 36 0 33 -13 -5z"/>
<path d="M4913 2775 c0 -8 4 -15 9 -15 4 0 8 7 8 15 0 8 -4 15 -8 15 -5 0 -9
-7 -9 -15z"/>
<path d="M3953 2765 c-8 -9 -9 -16 -3 -20 6 -3 10 -21 10 -40 0 -53 17 -51 22
3 5 53 -9 80 -29 57z"/>
<path d="M4686 2738 c9 -63 10 -65 43 -70 29 -4 31 -3 31 28 0 18 -7 40 -16
48 -21 21 -27 20 -20 -4 3 -11 9 -29 12 -40 4 -14 1 -20 -10 -20 -11 0 -16 13
-18 47 -2 26 -8 48 -16 51 -9 3 -11 -7 -6 -40z"/>
<path d="M5752 2755 c0 -16 2 -22 5 -12 2 9 2 23 0 30 -3 6 -5 -1 -5 -18z"/>
<path d="M4460 2749 c0 -11 4 -18 10 -14 5 3 7 12 3 20 -7 21 -13 19 -13 -6z"/>
<path d="M5782 2750 c0 -14 2 -19 5 -12 2 6 2 18 0 25 -3 6 -5 1 -5 -13z"/>
<path d="M6189 2765 c-9 -8 2 -55 12 -55 10 0 11 17 0 43 -3 10 -9 15 -12 12z"/>
<path d="M6471 2744 c0 -11 3 -14 6 -6 3 7 2 16 -1 19 -3 4 -6 -2 -5 -13z"/>
<path d="M4782 2670 c0 -71 0 -74 13 -45 8 17 14 40 15 53 0 13 4 20 10 17 16
-10 12 11 -5 25 -13 11 -15 8 -16 -16 -2 -27 -2 -27 -9 6 -6 27 -7 18 -8 -40z"/>
<path d="M6137 2727 c-3 -8 -1 -20 4 -28 6 -10 9 -7 9 14 0 29 -5 35 -13 14z"/>
<path d="M6090 2706 c0 -8 5 -18 10 -21 6 -3 10 3 10 14 0 12 -4 21 -10 21 -5
0 -10 -6 -10 -14z"/>
<path d="M6382 2690 c0 -19 2 -27 5 -17 2 9 2 25 0 35 -3 9 -5 1 -5 -18z"/>
<path d="M5622 2685 c0 -16 2 -22 5 -12 2 9 2 23 0 30 -3 6 -5 -1 -5 -18z"/>
<path d="M6242 2685 c0 -16 2 -22 5 -12 2 9 2 23 0 30 -3 6 -5 -1 -5 -18z"/>
<path d="M6062 2680 c0 -14 2 -19 5 -12 2 6 2 18 0 25 -3 6 -5 1 -5 -13z"/>
<path d="M4843 2648 c-6 -24 -10 -44 -8 -46 2 -2 11 13 21 33 10 22 13 40 7
46 -5 5 -13 -7 -20 -33z"/>
<path d="M5576 2675 c-3 -9 -6 -26 -5 -38 1 -14 4 -9 9 13 9 37 7 52 -4 25z"/>
<path d="M5661 2674 c0 -11 3 -14 6 -6 3 7 2 16 -1 19 -3 4 -6 -2 -5 -13z"/>
<path d="M6042 2670 c0 -14 2 -19 5 -12 2 6 2 18 0 25 -3 6 -5 1 -5 -13z"/>
<path d="M6010 2671 c0 -5 5 -13 10 -16 6 -3 10 -2 10 4 0 5 -4 13 -10 16 -5
3 -10 2 -10 -4z"/>
<path d="M4154 2644 c3 -8 6 -30 6 -48 0 -25 6 -35 25 -44 31 -14 36 -14 54
-3 11 7 11 16 -4 54 -10 26 -20 46 -24 45 -3 0 -8 0 -11 2 -3 1 -16 3 -29 6
-18 3 -22 1 -17 -12z m56 -38 c0 -4 -6 -3 -13 3 -8 6 -17 8 -20 4 -4 -3 -7 1
-7 10 0 15 3 15 20 5 11 -7 20 -17 20 -22z m-25 -16 c3 -5 1 -10 -4 -10 -6 0
-11 5 -11 10 0 6 2 10 4 10 3 0 8 -4 11 -10z"/>
<path d="M5980 2645 c0 -8 5 -15 10 -15 6 0 10 7 10 15 0 8 -4 15 -10 15 -5 0
-10 -7 -10 -15z"/>
<path d="M4048 2625 c2 -14 6 -25 8 -25 2 0 4 11 4 25 0 14 -4 25 -9 25 -4 0
-6 -11 -3 -25z"/>
<path d="M5443 2640 c-19 -8 -23 -17 -22 -52 1 -41 1 -41 9 -14 5 16 7 33 4
38 -4 5 3 12 15 15 12 3 21 9 21 14 0 5 -1 9 -2 8 -2 0 -13 -4 -25 -9z"/>
<path d="M5941 2624 c0 -11 3 -14 6 -6 3 7 2 16 -1 19 -3 4 -6 -2 -5 -13z"/>
<path d="M4241 2620 c0 -8 6 -24 14 -34 8 -11 15 -34 15 -52 0 -18 5 -36 12
-40 8 -5 9 0 5 17 -4 13 -7 35 -7 49 0 14 -9 36 -20 50 -13 16 -20 20 -19 10z"/>
<path d="M5900 2604 c0 -14 4 -23 9 -20 5 3 7 15 4 26 -7 28 -13 25 -13 -6z"/>
<path d="M5862 2590 c0 -14 2 -19 5 -12 2 6 2 18 0 25 -3 6 -5 1 -5 -13z"/>
<path d="M6145 2599 c-4 -6 -5 -12 -2 -15 2 -3 7 2 10 11 7 17 1 20 -8 4z"/>
<path d="M6240 2591 c0 -6 4 -13 10 -16 6 -3 7 1 4 9 -7 18 -14 21 -14 7z"/>
<path d="M5800 2555 c0 -15 4 -24 10 -20 6 3 10 12 10 20 0 8 -4 17 -10 20 -6
4 -10 -5 -10 -20z"/>
<path d="M5748 2555 c-3 -3 -3 -17 0 -31 3 -19 7 -22 13 -12 17 27 6 62 -13
43z"/>
<path d="M5687 2505 c-3 -16 0 -24 7 -22 14 4 21 47 8 47 -5 0 -12 -11 -15
-25z"/>
<path d="M6002 2510 c0 -14 2 -19 5 -12 2 6 2 18 0 25 -3 6 -5 1 -5 -13z"/>
<path d="M4344 2495 c9 -13 18 -34 19 -47 4 -24 22 -35 32 -19 3 6 1 11 -5 11
-8 0 -9 11 -5 31 8 34 -4 49 -39 49 -17 0 -17 -1 -2 -25z m26 0 c11 -13 10
-14 -4 -9 -9 3 -16 10 -16 15 0 13 6 11 20 -6z"/>
<path d="M5962 2485 c0 -16 2 -22 5 -12 2 9 2 23 0 30 -3 6 -5 -1 -5 -18z"/>
<path d="M4436 2477 c-3 -12 -6 -33 -6 -46 0 -22 3 -23 45 -18 38 6 46 4 55
-14 15 -26 31 -14 25 18 -6 34 -26 47 -41 27 -11 -13 -14 -13 -28 2 -20 20
-34 11 -16 -11 10 -12 10 -15 -4 -15 -18 0 -22 40 -5 57 7 7 6 12 -4 16 -10 4
-17 -2 -21 -16z m99 -47 c3 -5 1 -10 -4 -10 -6 0 -11 5 -11 10 0 6 2 10 4 10
3 0 8 -4 11 -10z"/>
<path d="M5641 2484 c0 -11 3 -14 6 -6 3 7 2 16 -1 19 -3 4 -6 -2 -5 -13z"/>
<path d="M5913 2465 c0 -22 2 -30 4 -17 2 12 2 30 0 40 -3 9 -5 -1 -4 -23z"/>
<path d="M5610 2475 c0 -8 4 -15 10 -15 5 0 7 7 4 15 -4 8 -8 15 -10 15 -2 0
-4 -7 -4 -15z"/>
<path d="M4887 2473 c-8 -13 11 -53 25 -52 10 0 10 2 1 6 -7 2 -13 14 -12 26
0 21 1 21 10 2 8 -19 9 -19 6 -1 -2 20 -22 33 -30 19z"/>
<path d="M5577 2450 c3 -11 7 -20 9 -20 2 0 4 9 4 20 0 11 -4 20 -9 20 -5 0
-7 -9 -4 -20z"/>
<path d="M5866 2452 c-2 -4 -1 -14 5 -22 7 -12 9 -10 9 8 0 23 -5 28 -14 14z"/>
<path d="M5540 2436 c0 -8 5 -18 10 -21 6 -3 10 1 10 9 0 8 -4 18 -10 21 -5 3
-10 -1 -10 -9z"/>
<path d="M5507 2419 c4 -13 8 -18 11 -10 2 7 -1 18 -6 23 -8 8 -9 4 -5 -13z"/>
<path d="M3950 2410 c0 -5 5 -10 11 -10 5 0 7 5 4 10 -3 6 -8 10 -11 10 -2 0
-4 -4 -4 -10z"/>
<path d="M5461 2404 c0 -11 3 -14 6 -6 3 7 2 16 -1 19 -3 4 -6 -2 -5 -13z"/>
<path d="M5491 2404 c0 -11 3 -14 6 -6 3 7 2 16 -1 19 -3 4 -6 -2 -5 -13z"/>
<path d="M5780 2400 c0 -11 4 -20 9 -20 5 0 7 9 4 20 -3 11 -7 20 -9 20 -2 0
-4 -9 -4 -20z"/>
<path d="M4579 2392 c6 -12 7 -23 1 -30 -7 -9 -7 -9 2 -2 7 6 16 6 24 -1 9 -7
14 -5 19 10 9 28 -1 41 -31 41 -21 0 -23 -3 -15 -18z m41 -13 c0 -6 -4 -7 -10
-4 -5 3 -10 11 -10 16 0 6 5 7 10 4 6 -3 10 -11 10 -16z"/>
<path d="M5742 2390 c0 -14 2 -19 5 -12 2 6 2 18 0 25 -3 6 -5 1 -5 -13z"/>
<path d="M5421 2374 c0 -11 3 -14 6 -6 3 7 2 16 -1 19 -3 4 -6 -2 -5 -13z"/>
<path d="M4660 2355 c0 -8 7 -15 15 -15 8 0 15 4 15 9 0 5 -7 11 -15 15 -9 3
-15 0 -15 -9z"/>
<path d="M4742 2318 c5 -15 28 -23 28 -10 0 5 -7 13 -16 16 -10 4 -14 1 -12
-6z"/>
<path d="M5582 2305 c0 -16 2 -22 5 -12 2 9 2 23 0 30 -3 6 -5 -1 -5 -18z"/>
<path d="M4830 2304 c0 -12 7 -27 15 -34 19 -16 19 -10 0 26 -13 25 -15 26
-15 8z"/>
<path d="M4887 2300 c3 -11 7 -20 8 -20 1 0 5 9 8 20 3 12 0 20 -8 20 -8 0
-11 -8 -8 -20z"/>
<path d="M5513 2275 c0 -22 2 -30 4 -17 2 12 2 30 0 40 -3 9 -5 -1 -4 -23z"/>
<path d="M5455 2270 c3 -5 8 -10 11 -10 2 0 4 5 4 10 0 6 -5 10 -11 10 -5 0
-7 -4 -4 -10z"/>
<path d="M4895 2252 c4 -8 11 -26 15 -40 7 -22 8 -23 9 -6 1 11 -6 29 -15 40
-8 10 -12 13 -9 6z"/>
<path d="M5422 2220 c0 -19 2 -27 5 -17 2 9 2 25 0 35 -3 9 -5 1 -5 -18z"/>
<path d="M10220 1960 c0 -5 5 -10 10 -10 6 0 10 5 10 10 0 6 -4 10 -10 10 -5
0 -10 -4 -10 -10z"/>
<path d="M10160 1886 l0 -46 -40 0 c-40 0 -40 0 -40 -39 0 -33 4 -40 21 -43
l21 -3 -21 -19 c-21 -19 -21 -19 -21 2 0 19 -6 22 -40 22 -37 0 -40 -2 -40
-28 0 -15 -5 -33 -12 -40 -9 -9 -5 -12 20 -12 31 0 32 -1 32 -43 0 -31 -6 -49
-20 -62 -19 -18 -20 -17 -20 3 0 19 -6 22 -39 22 l-38 0 -7 -57 c-4 -31 -4
-83 0 -115 l7 -58 -42 0 -41 0 0 -45 c0 -25 -4 -45 -10 -45 -5 0 -10 -18 -10
-40 0 -33 -3 -40 -20 -40 -17 0 -20 7 -20 40 l0 40 -49 0 -49 0 -7 -80 -7 -80
-34 0 c-33 0 -34 -1 -34 -38 0 -31 -7 -45 -43 -80 -35 -34 -50 -42 -80 -42
-37 0 -37 -1 -37 -40 l0 -40 -40 0 c-39 0 -40 -1 -40 -34 0 -34 -1 -35 -42
-39 -25 -2 -10 -4 37 -5 l79 -2 -37 -38 c-20 -21 -37 -48 -37 -60 0 -28 -35
-30 -52 -2 -10 15 -24 20 -60 20 l-48 0 0 -35 0 -35 -80 0 c-73 0 -80 -2 -80
-20 0 -13 5 -18 15 -14 8 4 15 10 15 15 0 5 12 9 28 9 24 -1 25 -2 10 -14 -26
-20 -22 -43 11 -57 29 -13 57 -46 47 -57 -4 -3 -12 0 -18 6 -19 19 -28 14 -28
-13 0 -14 -4 -25 -10 -25 -5 0 -10 18 -10 40 0 22 -5 40 -11 40 -6 0 -18 7
-27 16 -13 13 -17 14 -21 3 -2 -7 1 -15 8 -17 6 -2 11 -21 11 -43 l0 -39 -51
0 -51 0 2 -43 c3 -64 1 -77 -11 -77 -6 0 -13 9 -16 20 -6 23 -23 27 -23 5 0
-9 -7 -18 -15 -21 -10 -4 -15 -20 -15 -44 l0 -37 -57 -6 c-32 -4 -68 -10 -80
-13 -14 -4 -23 -2 -23 5 0 6 17 11 40 11 23 0 40 5 40 11 0 8 -13 9 -37 4 -42
-7 -83 -30 -83 -45 0 -6 -9 -10 -20 -10 -17 0 -20 -7 -20 -40 0 -33 -3 -40
-20 -40 -17 0 -20 -7 -20 -40 0 -36 -2 -40 -25 -40 -22 0 -25 -4 -25 -40 l0
-40 845 0 845 0 0 960 0 960 -24 0 c-13 0 -31 3 -40 6 -13 5 -16 -2 -16 -40z
m-30 -326 c0 -5 -4 -10 -10 -10 -5 0 -10 5 -10 10 0 6 5 10 10 10 6 0 10 -4
10 -10z m-430 -449 c0 -6 -4 -13 -10 -16 -5 -3 -10 1 -10 9 0 9 5 16 10 16 6
0 10 -4 10 -9z m0 -62 c0 -5 -4 -9 -10 -9 -5 0 -10 7 -10 16 0 8 5 12 10 9 6
-3 10 -10 10 -16z m-167 -166 c-7 -2 -13 -13 -13 -24 0 -16 -7 -19 -40 -19
-33 0 -40 3 -40 19 0 16 8 21 43 24 23 2 47 4 52 4 6 1 4 -1 -2 -4z m-233
-234 c0 -5 -4 -9 -10 -9 -5 0 -10 7 -10 16 0 8 5 12 10 9 6 -3 10 -10 10 -16z
m-100 -19 c0 -5 -6 -10 -14 -10 -8 0 -18 5 -21 10 -3 6 3 10 14 10 12 0 21 -4
21 -10z m-45 -30 c0 -8 -8 -16 -17 -18 -13 -2 -18 3 -18 18 0 15 5 20 18 18 9
-2 17 -10 17 -18z m45 -30 c0 -5 -9 -10 -21 -10 -11 0 -17 5 -14 10 3 6 13 10
21 10 8 0 14 -4 14 -10z m-30 -100 c0 -5 -4 -10 -10 -10 -5 0 -10 5 -10 10 0
6 5 10 10 10 6 0 10 -4 10 -10z m-160 -110 c0 -5 -4 -10 -10 -10 -5 0 -10 5
-10 10 0 6 5 10 10 10 6 0 10 -4 10 -10z m-80 -25 c0 -8 -4 -15 -10 -15 -5 0
-10 7 -10 15 0 8 5 15 10 15 6 0 10 -7 10 -15z m-177 -92 c-7 -2 -19 -2 -25 0
-7 3 -2 5 12 5 14 0 19 -2 13 -5z"/>
<path d="M3218 1168 c9 -9 15 -9 24 0 9 9 7 12 -12 12 -19 0 -21 -3 -12 -12z"/>
<path d="M2020 690 c0 -5 7 -10 15 -10 8 0 15 5 15 10 0 6 -7 10 -15 10 -8 0
-15 -4 -15 -10z"/>
<path d="M2220 680 c0 -5 5 -10 10 -10 6 0 10 5 10 10 0 6 -4 10 -10 10 -5 0
-10 -4 -10 -10z"/>
<path d="M2103 440 c0 -25 2 -35 4 -22 2 12 2 32 0 45 -2 12 -4 2 -4 -23z"/>
<path d="M2153 440 c0 -25 2 -35 4 -22 2 12 2 32 0 45 -2 12 -4 2 -4 -23z"/>
<path d="M8735 320 c28 -12 65 -12 65 0 0 6 -19 10 -42 9 -33 0 -38 -2 -23 -9z"/>
</g>
</svg>
